<svg height="64" viewBox="0 0 64 64" width="64" xmlns="http://www.w3.org/2000/svg"><g fill="#9DE3C0" stroke-width=".212576" transform="matrix(1.9694386 0 0 1.9694386 -14.527077 -27.083158)"><path d="m39.501683 14.568331c1.721868 1.721866-3.061097 9.289578-3.868886 10.097367-.80779.807789-2.84852.06377-4.570388-1.658093-1.721867-1.721868-2.465884-3.762599-1.658094-4.570388.80779-.829047 8.375501-5.590754 10.097368-3.868886z"/><path d="m15.353031 16.396486c-2.635944-1.488033-6.3772857-3.146128-7.5677123-1.955701-1.2116832 1.211684.5101831 5.038055 2.0194738 7.673999 1.3392305-2.359595 3.2524155-4.315296 5.5482385-5.718298z"/><path d="m36.865739 24.070485c.233833.829047.191318 1.509291-.191319 1.891928-.914077.914078-3.401219-.06377-5.633268-2.189534-.148804-.148804-.318864-.276349-.467668-.44641-.807788-.80779-1.445518-1.658095-1.828155-2.465884-.786532-1.403003-.977851-2.635945-.382637-3.231157.318864-.318864.829047-.403895 1.466775-.297607.403895-.255092.892821-.552698 1.424262-.850305-2.168278-1.126653-4.612904-1.764383-7.206333-1.764383-8.630592 0-15.6243481 6.993757-15.6243481 15.624349s6.9937561 15.624348 15.6243481 15.624348c8.630593 0 15.624349-6.993756 15.624349-15.624348 0-2.784748-.72276-5.399434-2.019474-7.673999-.255091.53144-.531441.999107-.786532 1.403002z"/></g></svg>