<?xml version="1.0" encoding="utf-8"?>
<svg version="1.1" id="Layer_2" xmlns="http://www.w3.org/2000/svg" xmlns:xlink="http://www.w3.org/1999/xlink" x="0px" y="0px"
	 viewBox="0 0 612 792" style="enable-background:new 0 0 612 792;" xml:space="preserve">
<style type="text/css">
	.st0{fill:#9DE3C0;stroke:#9DE3C0}
</style>
<path class="st0" d="M258.9,268.4c-0.2-3.7-0.8-7.7,1.4-10.6c0.9-1.2,2.2-2,3.4-2.9c3.1-2.5,5.5-6,6.7-9.8c1.1-3.5,1.3-7.6,4.1-10
	c1.9-1.6,4.5-2,6.7-3.1c2.4-1.2,4.3-3.1,6.3-4.9c5.5-4.9,12.2-8.7,19.6-9.5c3-0.3,6.3,0,8.7,1.8c3.5,2.7,4.2,7.6,6.8,11.2
	c1.8,2.6,4.7,3.7,6.7,6c2.4,2.8,4.6,6.7,6.2,10c0.8,1.6,0.4,2.4,0.3,4c-0.2,2.1,0.6,4.3,1.4,6.2c-0.9-2.2-6.2,2.4-6.9,2.8
	c-2.7,1.4-5.7,1.8-8.2,3.7c-2.8,2.2-4.1,5-7.7,5.9c-4.6,1.1-10.5,0.4-14.3,3.2c-2.2,1.6-4,3.7-6.1,5.4c-3.7,3-9,3.4-12.2,6.8
	c-3.4,3.7-4.3,10.2-9.2,11.4c-3.6,0.9-7-1.9-9.4-4.6c-2.2-2.5-8.1-8.5-8-12c0-1.8,2.1-2.9,2.8-4.5
	C259,272.9,259.1,270.5,258.9,268.4z"/>
<path class="st0" d="M316.1,216c1.1,0.7,2.5,1.6,3.7,1.1c0.9-0.4,1.4-1.4,1.8-2.3c1.7-4.5,2.4-9.4,2.1-14.1c0-0.5-0.1-0.9-0.4-1.3
	c-0.7-0.8-2-0.3-2.9,0.3c-1.7,1.2-3.5,2.3-5.2,3.5c-2.6,1.7-9.3,5.4-9.8,9c-0.3,2.1,2.4,1.4,3.9,1.6C311.7,214,314,214.8,316.1,216z
	"/>
<path class="st0" d="M326.4,209.4c-0.7,1.9-1.5,3.9-2.2,5.7c-0.3,0.6-0.7,1.3-0.9,2c-0.1,0.4,0.1,2.4,0,2.4c1.5-1.6,2.6-0.9,4.4-0.6
	c1.7,0.3,3.4-0.1,5.1,0c1.6,0.1,3.3,0.3,4.8,0.9c1.9,0.8,3.6,1.8,5.4,2.6c2.1-4.7,2.7-9.8,3.6-14.8c0.1-0.6,0.2-1.3,0-1.9
	c-0.2-0.8-0.9-1.4-1.6-1.9c-2.9-2.2-6.1-3.9-9.5-5.1c-1.7-0.6-5.9-2.2-7.6-1.1c-1.6,1-0.4,3.2-0.3,4.6
	C327.9,204.5,327.1,207.3,326.4,209.4z"/>
<path class="st0" d="M327.7,222.1c0.6,0,1.2,0,1.5,0c1,0.1,1.7,0.5,2.6,0.8c1.3,0.4,2.5,0.1,3.8,0.4c0.6,0.1,1.2,0.4,1.7,0.8
	c1.5,0.9,3.5,1.6,4.8,2.7c1.2,1.1,1,1.4,0.2,3c-1.1,2.2-0.7,4.4-0.8,6.7c-0.1,1.9-0.8,3.8-1.7,5.4c-0.1,0.2-0.2,0.3-0.3,0.4
	c-0.3,0.2-4.3-3.8-4.7-4.3c-0.9-1.1-1.4-2.1-2.6-3c-1-0.8-2.1-1.4-3-2.3c-1.5-1.6-2.5-4-3.7-5.9c-0.5-0.8-1.9-2.8-1.4-3.9
	C324.3,222.3,326.2,222.2,327.7,222.1z"/>
<path class="st0" d="M351.2,231.8c0.6,0.1,1.2,0.2,1.7,0.2c3.3,0.5,5.5,2.8,8.5,3.9c0.8,0.3,1.8,0.6,2.6,0.4
	c1.8-0.6,2.5-2.3,2.8-3.9c0.7-3.1,3.9-6.1,3.6-9.3c-0.1-1.4-1-2.8-1.3-4.3c-0.3-1.4-0.3-3.2-1.1-4.4c-0.8-1.2-2.5-1.7-3.9-2.4
	c-3.3-1.7-7.8-3.8-11.5-2.1c-0.3,0.1-0.6,0.3-0.8,0.6c-0.2,0.3-0.2,0.7-0.2,1.1c-0.1,2.7,0.1,3.7-1.2,6c-0.8,1.4-0.6,2.2-0.9,3.6
	c-0.5,2.2-2.4,3.9-2.9,6.1C345.8,230.5,348.6,231.4,351.2,231.8z"/>
<path class="st0" d="M344.7,199c1.5,1.1,2.5,2.5,4,3.7c0.6,0.5,1.3,1,2.1,1.2c1.3,0.2,2.4-1.4,3-2.4c1.2-1.9,1.7-4.4,2.6-6.5
	c1.1-2.5,2.9-4.2,3.9-6.9c-3.6-0.1-7.2,0.5-10.6,1.7c-2,0.7-3.9,1.7-5.9,2.6c-1.8,0.8-4.3,1.3-5.8,2.3c0.8-0.6,5.3,3.4,6,3.9
	C344.4,198.7,344.5,198.8,344.7,199z"/>
<path class="st0" d="M370.8,210.5c1.1,0.7,2.1,1.3,2.8,1c0.4-0.1,0.6-0.4,0.9-0.7c2.3-2.5,2.1-5.4,4-8.3c1.5-2.2,3.1-5.6,1.3-8
	c-0.4-0.6-1.2-0.8-1.6-1.4c-0.5-0.6-0.6-1.5-1.2-2.1c-1.3-1.4-2.6-1.1-4-1.8c-1.1-0.5-1.5-1.9-3-2.2c-1.2-0.2-1.8,0.4-2.8,0.7
	c-0.6,0.2-1.9,0.4-2.4,0.9c-0.3,0.3-0.4,0.7-0.5,1.1c-0.8,2.7-1.7,5.4-2.7,8.1c-0.8,2-2.2,3.6-3.1,5.5c-1.7,3.9,7.4,4.8,9.9,5.6
	C368.9,209.2,369.9,209.9,370.8,210.5z"/>
<path class="st0" d="M376.9,185.9c0.8-0.7,1.9-0.9,2.9-1.1c2.6-0.5,4.3-0.2,6.8,0.4c4.4,1.1,9.2-0.5,13.6-0.2
	c0.4,1.4-0.8,2.8-1.7,3.7c-1.8,1.8-3.8,3.5-6,5c-1.7,1.2-3.8,2.3-5.8,1.6c-1.8-0.6-1.6-2.2-2.5-3.5c-1-1.5-2.8-2.6-4.4-3.4
	C379.3,188.1,375.6,186.9,376.9,185.9z"/>
<path class="st0" d="M404.8,185.5c6.9,0,13.4,5.1,15.1,11.7c0.3,1.1,0.5,2.3,0.2,3.5c-0.6,3.3-4.1,5.1-6.2,7.8c-1.6,2-2.9,5-5.5,5.1
	c-1-2.7-2.7-5.2-5-7c-1.4-1.1-2.3-1.6-3.3-3c-1-1.5-2-2.8-3.4-4c-1-0.9-1.7-0.9-1.1-2.2c0.4-0.9,1.9-1.5,2.6-2.2
	C401.1,192.5,403.3,189.1,404.8,185.5z"/>
<path class="st0" d="M400.2,218.6c0.9-2.1,1.6-4.6,0.9-6.8c-1-2.8-3.6-2.9-5-5.2c-1.4-2.3-2.9-3.6-5.1-5.1c-1.7-1.2-3.7-2.3-5.8-2
	c-0.1,7.2-7.2,12.8-7.9,19.9c0-0.1,3.4,1.7,3.8,1.9c2.1,1,2.9,2.3,4.3,4c1.8,2.1,4.3,3.9,6.4,5.9c0.1,0.1,0.2,0.2,0.3,0.2
	c0.2,0,0.3-0.2,0.3-0.3c1.2-2.5,3.1-3.7,4.7-6C398.2,223,399.2,220.8,400.2,218.6z"/>
<path class="st0" d="M374.8,223.5c1.4,1.4,3.5,2.5,4.8,4.1c0.9,1.1,1.4,2.6,2.6,3.5c1.7,1.3,4.5,1.5,5.4,3.8
	c0.8,2.2-0.7,5.6-1.6,7.5c-0.9,1.8-3.5,9.8-5.8,10.1c-0.4,0-0.7-0.2-1-0.5c-2.6-2.4-5-4.6-7.4-7.1c-1.6-1.7-4.5-3.1-3.8-6
	c0.7-2.5,3.1-4.9,4.2-7.3C372.6,230.6,375.7,224.4,374.8,223.5z"/>
<path class="st0" d="M346.8,256.8c0.6,0.3,1.3,0.5,1.9,0.9c1.7,1.1,3.2,2.4,5,3.4c0.4,0.2,0.9,0.5,1.4,0.4c0.3-0.1,0.6-0.3,0.8-0.6
	c1.9-1.9,2.8-4.5,4.5-6.5c1.4-1.7,2.5-2.2,3.2-4.4c0.5-1.6,1.2-3.4,1-5.1c-0.4-3.6-4.5-4.7-7.2-6.1c-2.5-1.3-5.1-3.4-8.1-2.9
	c-2.2,0.4-3,3-3.7,4.8c-0.4,1-0.6,2.2-1.2,3.1c0,0,0,0.1-0.1,0.1c-0.8,1-1.9,1.2-2.5,2.5c-0.6,1.2-0.7,2.8-1.1,4.1
	c-0.2,0.8-1.6,2.3-1.1,3.1c0.1,0.2,0.3,0.4,0.5,0.5c1,0.6,2,1.7,3.2,1.6c0.5,0,0.9-0.1,1.4,0c0.8,0.2,1.3,0.9,2,1.3
	C346.7,256.8,346.7,256.8,346.8,256.8z"/>
<path class="st0" d="M369.9,249.5c1.9,0.1,3.7,1.1,4.8,2.5c0.7,0.9,1.1,1.9,1.7,2.8c0.8,1.4,2.2,2.3,3.4,3.3c1,0.9,1.9,2.2,3.2,2.8
	c0.7,0.3,1.7,0.7,1.7,1.5c-0.1,2.1-2.2,2.9-3.4,4.2c-1.5,1.5-2.8,3.1-3.9,5c-1.5,2.6-2.6,4.3-4.9,6.4c-0.9-3.3-3.2-6-5.9-8
	c-1.5-1.1-5.7-2-6.5-3.7c-1.2-2.8,3.8-7.2,5.3-9C365.9,256.6,369.8,249.5,369.9,249.5z"/>
<path class="st0" d="M401.4,238.1c2.3,1.5,3.9,3.8,5.4,5.9c0.6,0.8,1.3,1.5,2.2,2c0.5,0.3,2.3,1.1,2.8,0.9c0.3-0.1,0.5-0.3,0.7-0.4
	c3.7-2.9,6.6-6.8,8.2-11.2c1.3-3.4,1.3-8.6-2-10.9c-0.6-0.4-1.2-0.7-1.8-1c-1.8-1-3.3-2.6-5.1-3.3c-1.9-0.7-4.2-0.8-6.2-1.1
	c-0.2,0-0.5-0.1-0.7,0c-0.2,0.1-0.4,0.4-0.5,0.6c-1.7,4-3.2,8.1-5.6,11.7c-0.5,0.8-1.8,1.4-2.1,2.3
	C395.7,236.6,399.7,237,401.4,238.1z"/>
<path class="st0" d="M426.6,204.4c2.5,1,5,0.9,7.2,3.3c2,2.2,4.1,5.5,3.8,8.6c-0.3,3.4-2,6.7-4.3,9.3c-0.9,1-6.1,5.9-7.7,4.5
	c-0.7-0.6-0.3-3-0.7-4c-0.7-1.5-1.7-3.2-2.9-4.4c-1.1-1.1-2.8-1.4-4.3-1.9c-0.5-0.2-5.2-2.8-5-3c3-2.6,6.3-3.7,8.8-6.8
	c0.7-0.8,4.9-5.4,3.4-6.6C425.3,203.7,426,204.1,426.6,204.4z"/>
<path class="st0" d="M425.8,198c1.5,1.2,4.3-1,5.9-1.5c1.9-0.6,4-1.6,5.6-2.9c0.9-0.8,3.1-3.9,4.7-3.2c-2.4-1.1-4.2-2.1-6.8-2.4
	c-2-0.2-4-0.1-6.1-0.3c-1.5-0.1-3-0.2-4.5-0.2c-0.9,0-3.6-0.6-4.3-0.1c-1.3,0.8,1.7,3.6,2.5,4.9c0.9,1.6,1.5,4,2.8,5.4
	C425.6,197.8,425.7,197.9,425.8,198z"/>
<path class="st0" d="M444.2,215c1.9-0.1,4.1-1.6,5.9-2.2c4.6-1.7,8-5,8.3-10.2c0.2-4.5-3.2-8.7-7.6-9.4c-3.4-0.6-6.8,0.9-9.6,2.8
	c-1.8,1.3-4.3,3-5.6,4.7c-1.7,2.4,0.1,2.3,2.1,4.1C439.9,206.8,443.8,212.1,444.2,215z"/>
<path class="st0" d="M392.4,242.9c-0.6,1.2-1.5,2.1-2.4,3.1c-3.1,3.4-5.4,7.4-6.6,11.8c2.2-0.4,4.3,1,5.7,2.8
	c1.4,1.7,2.5,3.7,4.2,5.2c0.7,0.6,1.5,1.1,2.4,1.2c2.5,0.4,4.5-1.9,5.8-4.1c1.6-2.7,6.1-9.7,4.7-12.5c-0.1-0.1-1.8-1.1-2-1.3
	c-0.9-0.8-1.7-1.9-2.5-2.8c-1.9-1.9-4-3.7-6.2-5.2C393.1,239.4,393.2,241.4,392.4,242.9z"/>
<path class="st0" d="M386.3,267.2c3.3,0.3,6.3,2.5,8.3,5.1c2.1,2.6,3.3,5.8,4.6,8.9c-2.5,1.2-4,3.5-4.8,6c-2.1-0.7-3.7-2.5-6.1-3.1
	c-2.8-0.7-6.3-1.6-9.1-1.6c-1.2,0-1.9,1.5-2.9,0.1c-0.6-0.9,0.3-2.7,0.9-3.3c1.5-1.6,3.9-2.4,5.1-4.2
	C382.7,274.4,386.3,267.2,386.3,267.2z"/>
<path class="st0" d="M410.1,259c5.1,2,9,7,9.5,12.5c0.6,5.5-2.1,11.2-6.7,14.2c-2.6,1.7-5.5,2.5-8.5,3.2c2.1-0.5-4.9-14.9-4.5-16.2
	c0.7-2,4-4,5.3-5.7C407.2,264.6,408.9,261.8,410.1,259z"/>
<path class="st0" d="M419.9,258.6c2.1,2.1,3.8,4.6,5.4,7.1c2.3,3.6,2.3,2.9,5.5,0.8c4.6-3,5.6-6,5.6-11.7c0-5.2-3.9-14-9.9-14.7
	c-2.6-0.3-1.5,0-2.3,2c-0.6,1.5-1.3,2.7-2.3,3.9c-2.1,2.4-5,4-7.3,6.1c-1,0.9-2.8,2-1.8,3.2c0.4,0.4,3.2,0.6,3.8,0.8
	C417.7,256.8,418.9,257.6,419.9,258.6z"/>
<path class="st0" d="M436.9,229.6c3.3-2.1,6.2-5.1,6.4-9.3c1.5,1.1,2.8,2.6,4.1,3.9c1.4,1.6,2.8,3.3,3.5,5.3c1.2,3.2,0.5,6.9-1,10
	c-1.1,2.2-4.8,9-7.7,8.6c-2.3-0.3-2.7-4-4-5.5c-1.9-2.3-4.6-3.9-6.9-5.7C427.3,233.9,434.7,231,436.9,229.6z"/>
<path class="st0" d="M461.8,211.2c2.8-2.4,8.7,9.3,8.6,11.7c-0.5,7.3-8,8.7-13.8,9.1c1.1-0.1-2-6.9-2.4-7.4
	c-0.4-0.5-5.3-4.4-5.9-3.9c1.9-1.6,3.6-2.8,5.7-4.1C456.7,215.1,459.4,213.3,461.8,211.2z"/>
<path class="st0" d="M487.8,211.2c-2.6-1.3-5.2-2.3-7.5-4.1c-0.9-0.7-1.8-1.5-2.8-2.1c-1.4-0.9-3-1.4-4.6-1.9c-2-0.7-4-1.3-6-2
	c-1-0.3-2.5-0.5-3,0.4c-0.2,0.4-0.2,0.8-0.1,1.3c0.4,3.4,4.7,6.3,6.7,8.9c2.1,2.5,3.9,5.6,4,8.9c4.2-1.1,8-2.3,11.1-5.7
	C486.5,213.7,487.1,212.5,487.8,211.2C487.8,211.2,487.8,211.2,487.8,211.2z"/>
<path class="st0" d="M423.1,293.6c4.1,0.6,10.7,1.7,10.9,2.8c-0.5-2.5-1.5-5.6-2.9-7.7c-1.5-2.2-4.2-7.1-7.4-6.1
	c-0.4,0.1-0.9,0.4-1,0.9c-0.5,1.7,0,2.1-2,3.5c-3,2.1-6.5,3-9.5,5.3c1.6-1.3,7.4,0.6,9.2,0.9C420.7,293.3,421.8,293.4,423.1,293.6z"
	/>
<path class="st0" d="M429.1,273.4c-0.9,0.8-1.9,1.8-1.5,3c5.2,2.3,7.2,8.4,10.4,13c0.3,0.4,0.7,0.9,1.2,1.1c0.9,0.3,1.7-0.5,2.4-1.1
	c1.5-1.3,3.3-2.1,4.8-3.3c6.3-5,5.2-13.2,0.1-18.6c-1.2-1.3-2.6-2.4-4.1-3.2c-3-1.8-2.7-0.8-4.7,1.5
	C435.4,268.5,431.9,271.1,429.1,273.4z"/>
<path class="st0" d="M464.2,261c1.7-3.5,1.7-7.8-0.3-11.1c-2.2-3.8-6.2-5.8-8.6-9.7c-1.1,3.2-2.1,6.1-5,7.9c-2.8,1.8-6,3.3-7.5,6.5
	c-0.2,0.4-0.3,0.8-0.3,1.3c0,0.6,0.3,1.1,0.6,1.5c1.5,2.2,3.6,3.7,5.6,5.4c1.7,1.4,3.3,3.6,4.7,5.3C456.6,271.8,462.7,264,464.2,261
	z"/>
<path class="st0" d="M466.5,243.8c0.9,0.8,1.8,1.7,2.7,2.6c1.9,2.1,2,6,5,5.4c3-0.6,7.2-4.7,9.8-6.4c0.4-0.3,0.9-0.6,1.2-1
	c0.3-0.5,0.3-1.1,0.3-1.6c0.1-5.8-3.5-11.5-8.8-14c-0.3-0.1-0.7-0.3-1-0.2c-0.4,0.1-0.8,0.4-1.1,0.7c-2.7,2.8-6.1,4.2-9.6,5.7
	c-1,0.4-4.5,1.5-4.6,2.7c0,1,3.1,3.2,3.8,4C465,242.3,465.8,243.1,466.5,243.8z"/>
<path class="st0" d="M484.2,229.3c3.7,2.7,5.8,7.5,5.2,12.1c4,1.1,8.2-0.3,11.8-2.3c1.4-0.8,2.7-1.7,3.8-2.9c2.2-2.4,2-5.1,0.9-8
	c-2.6-6.8-8.5-13.3-16-9.3c-1.4,0.8-2.6,1.8-4,2.7c-1.3,0.8-2.9,0.8-4,1.5C478.5,225.2,482.2,227.9,484.2,229.3z"/>
<path class="st0" d="M446.7,299.8c1.1,0.2,2.2,0.2,3.4,0.3c4.3,0.4,8.6,3,11.9,5.7c0.9-2.9-1.6-9.2-2.8-11.9
	c-1.7-3.5-4.6-6.2-8.7-4.8c-1.2,0.4-11.3,7.7-10.4,8.4C441.5,298.8,444.7,299.5,446.7,299.8z"/>
<path class="st0" d="M461.3,269.9c2.3-1.8,5.9-5.2,8.8-2.8c2.2,1.8,3.5,5,4.2,7.7c0.3,1,1.3,9.4,0.8,9.5c-2.4,0.5-4.6,1-6.7,2.6
	c-1.4,1-2.7,2.5-4.5,2.6c-2.5,0.3-4.5-2.1-5.6-4.3c-1.2-2.4-2-4.9-2.3-7.6c-0.4-3.3-1.1-3.7,1.5-5
	C458.6,272.1,459.9,271,461.3,269.9z"/>
<path class="st0" d="M472.8,257.5c-0.7,0.9-1.2,1.9-0.9,3c0.2,1.2,2.6,3.5,3.2,4.7c0.8,1.4,1.5,2.9,2.4,4.3c1,1.7,2,3.3,2.5,5.3
	c0.1,0.4,0.2,0.9,0.6,1.1c0.4,0.3,0.8,0.2,1.3,0.1c2.7-0.7,3.6-3,5.6-4.7c1.2-1,2.3-2.1,3-3.4c0.7-1.3,0.8-2.9,0.9-4.4
	c0.1-3.3-0.2-8.1-2.1-11c-2.5-3.5-4.6-0.6-6.8,1.4c-1.7,1.5-2.3,1.3-4.4,1.3C476.3,255.1,474.1,256.1,472.8,257.5z"/>
<path class="st0" d="M490.8,245.8c-0.3,1.3,0.4,2.5,1.3,3.5c0.9,0.9,2,1.7,2.7,2.7c1.9,2.7,1.1,6.3,1,9.6c0,0.4,0,0.8,0.2,1.2
	c0.3,0.4,0.8,0.5,1.3,0.5c1,0.1,2,0.2,2.9,0.3c2,0.2,4.1,0.5,6.1,0.2c2-0.3,4-1.1,5.3-2.7c1.8-2.2,1.9-5.4,1.8-8.2
	c0-1.8-0.1-3.7-1-5.2c-0.7-1.1-1.7-1.9-2.7-2.7c-1.3-1-2.6-2-3.8-3c-0.1-0.1-0.2-0.2-0.4-0.2c-0.3,0-0.5,0.2-0.7,0.5
	c-1.8,2.2-4.5,3-7.1,3.4C497.1,245.6,490.9,245.1,490.8,245.8z"/>
<path class="st0" d="M510.6,238.9c0,0.5,0,0.9,0.2,1.4c0.2,0.5,0.6,0.8,1,1.1c2,1.8,4.1,3.6,6.6,4.6c2,0.8,4.1,1.6,6.1,2.3
	c-0.2-3.7-2.6-7.7-5-10.5c-1.2-1.4-6.5-7.2-8.2-6.8C509.3,231.4,510.5,237.5,510.6,238.9z"/>
<path class="st0" d="M466.5,305.2c0,0.5,0,1.1,0.3,1.5c2.5,4.7,12.7,7.3,15.4,1.3c0.3-0.7,0.4-1.4,0.4-2.1c0.4-5.6-1.4-13-5.8-16.7
	c-1.6,1.4-3.1,2.6-5.3,3.3c-0.5,0.1-5.9,1-5.9,0.2C465.7,296.8,466.5,301,466.5,305.2z"/>
<path class="st0" d="M487.7,307.2c0,0.7,0.1,1.4,0.1,2.1c0,0.3,0,0.6,0.2,0.7c0.1,0.1,0.3,0.1,0.5,0.1c2.2,0.1,4.4,0.2,6.6,0.3
	c2,0.1,6.6-0.5,7.9-2.2c1.5-1.9,1.9-4.4,1.8-6.9c0-1.5-0.2-3.2-1.1-4.4c-2.6-3.5-10-4-13.8-6.1c-1-0.5-6-4.9-6.8-4.5
	c-1.9,0.9,2.7,8.8,3.2,10.5C487.2,300.2,487.5,303.8,487.7,307.2z"/>
<path class="st0" d="M495.7,267.8c5.8,0.5,11.7,0.6,17.6,0.3c2.2,4.7,2,10.5-0.5,15c-3.2,5.6-8.9,7.8-15.2,6.1
	c-3.8-1.1-5.6-3.9-8.7-6c-2.3-1.5-4.9-1.4-3.1-3.8c1.5-1.9,4-3.3,5.6-5.2C493,272.1,494.5,270,495.7,267.8z"/>
<path class="st0" d="M515.9,265.2c-0.2,0.6-0.4,1.2-0.2,1.8c0.2,0.7,1,1.1,1.7,1.4c1.3,0.6,2.6,1.3,4,1.9c2.2,1,4.4,2.1,6.8,2
	c0.5,0,1-0.1,1.3-0.4c0.7-0.5,0.7-1.5,0.7-2.4c-0.1-3.4-0.5-6.9-0.9-10.3c-0.3-2.3-0.2-2.2-2.3-3.5c-1.6-1-7.7-6-9.4-3.6
	c-0.7,0.9-0.2,5.5-0.3,6.9C517,261.1,516.5,263.2,515.9,265.2z"/>
<path class="st0" d="M518.5,274.4c0-0.1,0-0.1,0.1-0.2c0.1-0.2,0.4-0.2,0.6-0.2c3.5-0.1,5.2,1.9,8.1,2.9c3.6,1.1,4.2-1.4,6.9,2.3
	c2.3,3.2,3.4,7.5,1.6,11.2c-1.2,2.5-4.7,6-7.4,6.6c-1.9,0.4-4-0.2-5.5-1.5c-0.8-0.7-1.3-1.6-2-2.3c-1.4-1.5-3.4-0.9-4.9-2.4
	c-1.5-1.5-0.6-2.1,0.1-3.9c1.6-4,2.6-7.8,2.3-12.1C518.5,274.6,518.5,274.5,518.5,274.4z"/>
<path class="st0" d="M508.1,297.3c0-0.8,0-1.7,0.3-2.4c0.3-0.8,1-1.5,1.8-1.5c0.5,0,1,0.3,1.5,0.5c2.3,1.4,4.5,2.9,6.5,4.7
	c1.7,1.5,3.6,3.2,5.8,2.9c0.6,5.2-0.9,10.5-4.3,14.5c-0.8,0.9-1.7,1.8-3,2c-2.4,0.3-11-4.8-10.6-6.9
	C506.9,306.7,508.2,301.9,508.1,297.3z"/>
<path class="st0" d="M533.8,298.2c0.3-0.6,0.6-1.3,1-1.8c0.2,0,0.4,0.1,0.5,0.3c2.4,4.5,8.9,7,7.9,12.8c-0.3,1.8-2,3-3.5,4
	c-2.7,1.7-4.7,4.6-7.9,2.9c-2.7-1.5-3.6-3.5-4.2-6.4c-0.5-2.4-1.3-6.5,0.7-8.4c1-0.9,2.6-0.6,3.7-1.3
	C532.9,299.8,533.4,299,533.8,298.2z"/>
<path class="st0" d="M539.1,325.5c0.4,2.5,2.2,4.7,4.5,5.8c0.5-3,0.6-6.1,0.3-9.2c-0.2-1.5-1.1-3.2-2.7-3.6c-0.3-0.1-0.6-0.1-0.8,0
	c-0.4,0.2-0.5,0.6-0.6,1C539.4,321.5,538.8,323.6,539.1,325.5z"/>
<path class="st0" d="M520.3,328.8c-0.1,0.5-0.2,1-0.2,1.5c0.2,1.6,2.1,4.6,3.7,5.1c1.7,0.5,4.5-0.7,6.2-1.1c0.4-0.1,0.7-0.2,1-0.4
	c0.3-0.3,0.4-0.6,0.5-1c0.8-2.5,2.2-4.7,4-6.6c-2-0.9-3.8-2.3-5.2-4c-0.8-1-1.4-2.2-2.6-2.8C521.6,316,521.1,325.1,520.3,328.8z"/>
<path class="st0" d="M515.7,323.8c0.4,0.1,0.8,0.4,1.1,0.8c0.7,1.1,0.3,3.4,0.1,4.6c-0.3,2.9-1.2,5.9-2.5,8.4
	c-0.7,1.4-1.6,2.7-2.7,3.7c-1.2,1-2.7,1.6-4.1,2.3c-0.6,0.3-1.4,0.6-2,0.4c-0.6-0.2-1-0.6-1.3-1c-1.1-1.3-1.9-2.8-2.4-4.4
	c-0.2-0.7-0.4-1.4-0.3-2.1c0.1-0.9,0.7-1.7,1.1-2.5c1.2-1.9,2-4.1,2.4-6.3c0.6-3.5,0.7-7.1,0.3-10.6c0,0.4,3.7,3.1,4.1,3.5
	c1,0.9,2.1,1.9,3.3,2.5C513.7,323.6,514.8,323.5,515.7,323.8z"/>
<path class="st0" d="M485.2,320.7c2.4,1.5,5.5,2.4,6.9,4.9c1,1.7,1,3.8,1.6,5.7c0.5,1.9,2,3.9,4,3.7c2.4-6.2,3.4-12.9,2.9-19.6
	c0-0.4-0.1-0.9-0.4-1.1c-0.4-0.3-0.9-0.2-1.4-0.1c-3.5,0.9-7.2,0.9-10.7,0c-1.4-0.4-2.8-0.9-4.3-1
	C476,312.6,482.1,318.8,485.2,320.7z"/>
<path class="st0" d="M495.2,341.4c0.3,0.5,0.6,1.1,0.7,1.7c0,0.8-0.5,1.5-1,2.1c-2.5,3.5-4,7.8-4.1,12.2c-2.1-2.1-3.1-5.3-2.7-8.3
	c0-0.6-2.9-3-3.4-3.6c-1-1.4-1.2-2.4-1.7-4c-1.2-3.8-2.4-7.6-3.6-11.4c-0.4-1.4-1.1-10.3-1.3-10.4c4.1,2.5,5.3,5.5,8.1,9
	C489.5,332.7,492.4,336.9,495.2,341.4z"/>
<path class="st0" d="M501.5,342.7c-0.5-0.2-1,0.3-1.1,0.8s0.2,1,0.4,1.5c0.5,1.1,1,2.1,1.5,3.2c0.2,0.5,0.6,1.1,1.2,1.1
	c0.8,0,0.9-1.2,0.7-2c-0.6-1.9-1.8-3.6-3.4-4.8"/>
<path class="st0" d="M500.8,362.1c-0.1,1.8-0.3,3.5-0.6,5.2c-0.4,2.6-0.8,5.3-1.2,7.9c-2-4.4-3.3-9-4-13.7c-0.1-0.9-0.2-1.9-0.1-2.8
	c0.1-1.1,0.6-2.1,1-3.1c1.2-2.6,2-5.9,3.8-1.9C500.7,356.2,500.9,359.4,500.8,362.1z"/>
<path class="st0" d="M504.2,355.4c0,1.9,0,3.8,0,5.8c0,0.2,0,0.3,0.1,0.4c0.2,0.2,0.6,0,0.8-0.2c2.3-2,4.8-4.3,5.1-7.3
	c0.1-0.7,0-1.5-0.4-2.2c-0.7-1.2-3.3-2.1-4.6-1.3C504.1,351.4,504.2,354.1,504.2,355.4z"/>
<path class="st0" d="M519.2,336.6c1.2,0.3,2.2,1.3,2.9,2.4c0.6,1.1,1,2.4,1.3,3.6c0.6,2.3,1.2,4.5,1.9,6.8c-2,0.4-3.8,1.5-5.7,2.2
	c-1.9,0.7-4.3,1-5.9-0.2c-0.9-0.6-2.8-3-2.3-4.3c0.4-1.3,1.5-0.9,2.5-1.5C514.7,345.2,520.7,337,519.2,336.6z"/>
<path class="st0" d="M529.5,344.2c1,1.7,2.9,3,4.8,2.8c2.4-0.2,4-2.6,5.1-4.8c0.4-0.8,4.7-5.6,5.1-5.3c-2.8-2.3-5.4-3.8-7.3-7.3
	c0.9,1.6-5.5,6.5-6.7,7.5C528,339.4,527.7,341.1,529.5,344.2z"/>
<path class="st0" d="M544.5,349c-0.1,1.1-0.2,2.1-0.3,3.4c-0.1,1.6-1.8,10.2-0.8,11.2c-1.8-1.8-3.5-3.7-5-5.8
	c-0.9-1.2-1.7-2.6-2.2-4c-0.3-0.8-0.5-1.7-0.3-2.6c0.6-3.7,5.7-4.8,7.7-7.6C544.5,345.6,544.6,347.3,544.5,349z"/>
<path class="st0" d="M507.8,363.7c1-0.6,1.8-1.4,2.5-2.3c1.1-1.3,2.2-2.6,3.3-3.8c0.9,3.9,2.6,7.7,5,10.9c-0.8,1.7-2.8,2.7-4.7,2.9
	c-1.9,0.2-3.8-0.2-5.7-0.6c-0.2-0.1-0.4-0.1-0.6-0.2c-0.4-0.2-0.6-0.7-0.9-1.1c-0.8-1.5-1.7-3.1-2.2-4.7
	C505.6,364.2,506.8,364.3,507.8,363.7z"/>
<path class="st0" d="M520.9,365.7c1.9,2.6,5.7,3.4,8.8,2.3c3.1-1.1,5.4-3.7,6.8-6.6c-3.1-2.8-5.9-6-8.3-9.5
	c-1.4,1.3-2.8,2.5-4.4,3.4c-1.5,0.8-2.9,0.7-4.6,0.7c-0.2,0-0.5,0-0.6,0.2c-0.1,0.1-0.1,0.3-0.1,0.5
	C518.6,359.7,519.1,363.3,520.9,365.7z"/>
<path class="st0" d="M539.3,382.4c-0.1,2.1-0.2,4.6-2,3.7c-1.3-0.7-3.3-4.9-4.2-6.3c-1.7-2.5-3-5.3-3.6-8.3c0.1,0.5,7.5-3.8,8.2-4.2
	c2.7-1.5,4.4-0.2,4,3.4c-0.4,3.4-1.6,6.6-2.3,9.9C539.3,381.1,539.3,381.7,539.3,382.4z"/>
<path class="st0" d="M516.5,387.8c1.7,1.2,5.3-0.7,6.8-1.7c4.5-3.1,7.1-7.7,2-11.9c-3.9-3.3-11.5-2-10.5,4c0.4,2.2-0.2,7.6,1.3,9.3
	C516.3,387.6,516.4,387.7,516.5,387.8z"/>
<path class="st0" d="M502.3,377.9c1.4-1.2,3-3.3,5-3c2.2,0.3,2.8,2.4,3.1,4.2c0.5,2.6,1.2,4.8,2.1,7.4c0.1,0.2,0.2,0.4,0.1,0.6
	c-0.1,0.3-0.4,0.4-0.6,0.5c-3.8,1.5-7.7,2.7-11.7,3.6c0.1-2.7-0.7-5.5-2.3-7.7C494.8,379.2,499.5,380.3,502.3,377.9z"/>
<path class="st0" d="M508.9,404.1c0.6,1.5,1.4,2.6,3.1,2.6c3.6-0.1,6.6-1.6,9.6-3.4c0.9-0.6,5.3-3,3.3-4.5c-2-1.5-2.6-4.1-5.3-5.6
	c-1-0.6-2.2-0.7-3.3-0.8c-2.1-0.2-8.5-1.2-9.9,1c-1.2,1.9,0.8,5.6,1.4,7.4C508.2,401.8,508.5,403,508.9,404.1z"/>
<path class="st0" d="M528.7,396.8c0.9,0.3,1.9,0.5,2.8,0.7c1.5,0.3,3.1,0.5,4.6,0.8c0.6-3.4,0.9-6.9,0.9-10.4
	c-1.7-0.5-3.4-0.8-5.1-1c-1.4-0.2-2.8-0.2-4,0.4c-0.7,0.4-1.3,1.1-1.8,1.7c-1.1,1.4-2.6,2.8-1.9,4.5
	C524.7,394.9,527.3,396.3,528.7,396.8z"/>
<path class="st0" d="M528.5,399.5c2.3,0.4,4.5,1.1,6.5,2c-1,1.8-2,3.5-3.3,5.1c-0.2,0.3-0.5,0.6-0.8,0.8c-0.3,0.1-0.6,0.1-0.8,0.1
	c-1.9,0.1-5.7,0.3-5.8-2.2C524.3,404.7,528.3,399.4,528.5,399.5z"/>
<path class="st0" d="M522.1,422.9c1.2-2.7,2.7-4.7,4.4-7.1c0.8-1.1,3.1-5.9,4.6-6c-2.4,0.3-4.8,0.5-7.3,0.3c-1.4-0.1-3.7-1.1-5,0.2
	C516.7,412.3,521,421,522.1,422.9z"/>
<path class="st0" d="M491.2,390.8c0,0.1,0,0.2,0.1,0.3c0.1,0.1,0.2,0.1,0.3,0.2c2.9,0.8,5.3-2,4.7-4.6c-0.1-0.4-0.2-0.8-0.6-1.1
	c-0.2-0.1-2.1-0.2-2.5-0.1c-0.7,0.1-1.1,0.5-1.4,1.1C491.1,387.8,490.9,389.5,491.2,390.8z"/>
<path class="st0" d="M492,393.9c2.3,0.5,4.5,1,6.8,1.3c1,0.1,3.4-0.5,4.2-0.1c1,0.6,0.9,3.2,1.1,4.3c0.3,1.8,0.7,3.6-0.2,5.3
	c-0.5,0.9-1.8,1-2.6,1.6c-0.4,0.3-0.8,0.7-1.1,1.1c-2.8,2.9-7.6,2.7-9.6-1c-1.1-2.2-0.5-4.5,0.2-6.7
	C491.1,399.2,492.8,394,492,393.9z"/>
<path class="st0" d="M483.6,417.2c0.1,1.6,0.3,3.1,1,4.5c0.6,1.4,1.8,2.7,3.3,3c1.1,0.3,2.3,0.1,3.4-0.2c2.5-0.6,4.9-1.4,7.3-2.4
	c0.2-0.1,0.4-0.2,0.5-0.4c0.1-0.2,0.1-0.4,0.1-0.5c0-3.3-0.2-6.6-0.7-9.9c-2.8,0-5.6,0.1-8.4,0.1c-1.7,0-4.2-1-5.5,0.1
	C483.3,412.9,483.4,415.6,483.6,417.2z"/>
<path class="st0" d="M486.8,406.5c0.9-1.6,1-3.5,1.1-5.3c0.1-1.1,0.1-2.2-0.2-3.2c0-0.2-0.1-0.4-0.3-0.5c-0.3-0.2-0.7,0.1-0.9,0.4
	c-1.2,1.6-2.3,3.2-3.4,4.8c-0.6,1-2.4,2.8-2.5,3.9C480.3,410.6,485.7,408.4,486.8,406.5z"/>
<path class="st0" d="M502,418.3c0,1.1,0,2.4,0.8,3.2c0.5,0.6,1.3,0.9,2.1,1c1.8,0.3,3.8,0.1,5.4-0.7c0.9-0.4,1.8-1,2.7-1.4
	c2.6-1,3.6,0.5,2.4-2.8c-0.9-2.7-1.1-5.9-1.4-8.7c-2-0.1-4,0.6-6,1.1c-1.8,0.5-3.4,0.1-5.1-0.4c-0.2-0.1-0.5-0.1-0.7,0
	c-0.1,0.1-0.2,0.3-0.2,0.4C501.4,413,502,415.4,502,418.3z"/>
<path class="st0" d="M513.9,425.2c1.1-0.5,2.3-1.1,3.3-1.8c0.4-0.2,0.8-0.5,1.3-0.5c1.1,0,1.8,1.3,1.5,2.4c-0.3,1.1-1.1,1.9-1.8,2.7
	c-0.7,0.8-1.5,1.6-2,2.5c-0.8,1.6-0.9,3.1-2.2,4.6c-0.2,0.2-0.3,0.3-0.6,0.4c-0.5,0-0.7-0.5-0.8-0.9c-0.5-1.6-0.9-3.3-1.1-5
	c-0.1-0.8-0.5-2.6-0.1-3.4C511.9,425.4,512.8,425.7,513.9,425.2z"/>
<path class="st0" d="M503.9,426.3c0.8-0.3,1.8-0.6,2.2,0.1c0.2,0.3,0.2,0.7,0.2,1c0,3.2,1.4,6.4,3.8,8.5c0.5,0.4,1,0.9,0.9,1.5
	c-0.1,0.2-0.3,0.4-0.4,0.6c-2.4,2.4-5.3,4.3-8.4,5.7c-2.6,1.1-3.8,1.2-5.5-0.9c-1.5-1.8-2.7-3.3-2.7-5.6c0-1.8,0.2-3.7,0.2-5.5
	c0-1.5-0.8-3.4,0.8-4.3c1-0.5,2.7,0,3.7,0C500.5,427.3,502.2,426.9,503.9,426.3z"/>
<path class="st0" d="M489.5,428C489.5,428,489.5,428,489.5,428c1.7-0.6,0.8,1.8,0.7,2.5c-0.2,1.5-0.1,3,0,4.5c0,1.4,0.6,5-0.1,6.2
	c-1.5,2.6-6.3,0.1-7.6-1.5c-1.3-1.5-2.4-3.2-3.1-5.1c-0.5-1.3-0.8-2.8-0.6-4.1c0.2-1.8,0.4-1.6,2-1.5
	C484,429.3,486.5,429.1,489.5,428z"/>
<path class="st0" d="M482.7,424.8c-0.7,0.6-1.8,0.7-2.7,0.5s-1.8-0.7-2.6-1.1c-0.4-0.2-0.8-0.5-1.2-0.8c-0.9-0.8-1.3-2-1.5-3.1
	c-0.2-1-0.4-2-0.3-3c0.1-2.2,1.3-4.4,3.1-5.7c2.9-2.1,4.9-0.7,4.3,2.4C480.9,417.7,480.7,421.5,482.7,424.8z"/>
<path class="st0" d="M395.4,408.6c0.6,2.9,2.3,6,2.5,9.4c0.3,4.1,1.5,9.8,4.3,12.8c2.2,2.3,5.2,3,7.8,4.7c2.6,1.7,3.3,4,5.4,6.1
	c4.9,4.9,14,7.3,20.7,6.9c5.9-0.3,11.6-2.6,16.7-5.5c4.1-2.3,7.8-5.2,11.8-7.6c1.5-0.9,8.3-5.8,9.5-5.1c-1.2-0.7-1.3-2.3-1.3-3.6
	c0.1-1.3,0.2-2.9-0.8-3.8c-3,2.3-6,4.5-9,6.8c-2,1.5-5.2,2.5-7.6,3.6c-5.8,2.7-14.8,0.9-20.9-0.5c-4.4-1-8.8-2.3-12.6-4.8
	c-12.8-8.1-10.2-25.7-20.6-35c-3.3-3-7.3-4.1-10.5-7.1c0.9,0.8,1.7,6.5,2.4,8.1c1.2,2.5,2.9,5.1,2.8,8.1c-0.1,1.7-1.1,3.3-1,5.2
	C395.3,407.7,395.3,408.2,395.4,408.6z"/>
<path class="st0" d="M456,447.7c3.9-2.1,7.6-4.6,11.1-7.4c1.3-1.1,7.9-5.6,7.8-7.5c0.1,2.9,1,4,2.3,6.4c0.4,0.8,0.9,1.6,1.1,2.4
	c1.2,3.7-0.4,6.3-2.4,9.1c-2.4,3.4-4.1,7.5-5.8,11.3c-1.8,4-3.3,8.2-4.8,12.3c-0.4,1.2-4.5,11.6-3.9,12c-3.2-2.5-5-6.5-5.6-10.6
	s-0.2-8.2,0.3-12.2c-0.4,3.7-16.9,1.7-16.9,2.1c-0.2-3.1-1.5-5.3-3.2-7.8c-0.4-0.7-2.3-4.5-2.9-4.6c4.6,0.2,8.9,0.3,13.3-1.3
	C449.7,450.8,452.9,449.4,456,447.7z"/>
<path class="st0" d="M489,448.2c-1.5,21.4-7.5,42.4-17.4,61.4c-3.1-2.3-4.2-6.4-4.9-10.2c-0.4-2-0.6-4-1.2-6
	c-0.6-2.2-2.2-3.9-1.7-5.8c0.4-1.3,2.1-2.7,2.9-3.8c3.4-4.5,5.9-10.7,8-15.9c1.5-3.8,2.7-7.8,3.7-11.8c0.7-2.6,1.2-6.1,3.4-7.9
	c1.4-1.2,1.6-1,3.5-0.8C485.6,447.5,488.9,448.5,489,448.2z"/>
<path class="st0" d="M506.4,446.1c-2.7,13.7-3,27.6-5,41.4c-1,6.8-2.4,13.6-4.6,20.1c-1.9,5.6-5.6,9.2-9.7,13.3
	c-2.8,2.8-3.9,6.5-6.7,9.2c-1.3,1.2-3,1.9-4.6,2.6c-7.6,3.3-11.7,6.8-13.7,15.1c-1,3.8-1.6,4.5-5,5.2c-3.2,0.6-5.3,2.4-6.8,5.3
	c-1.3,2.5-2.1,5.2-3.6,7.7c-1.2-10.2,2.5-20.2,7.9-28.7c2.5-4,4.8-7.5,8.2-10.9c6.1-6.1,12.1-12.6,17.3-19.5
	c2.2-2.9,3.6-6.8,5.1-10.2c6.4-14.8,10.6-31.1,8.5-47.4C497.4,448.5,503.1,448.5,506.4,446.1z"/>
<path class="st0" d="M345.4,165.8c0.8-2.1,2.2-4,2.7-6.3c0.7-2.8-0.1-5.8,0.3-8.7c0.8-6.2,6.3-10.2,9-15.6c3.1-6.3,5-11.1,12-14.2
	c1-0.4,2-0.8,3.1-0.9c2.1-0.2,4.1,0.8,6.2,1.3c4,0.9,6-1.9,9.3-3.3c7.8-3.3,16.4,3.7,24.9,3.1c-10.8,1-20,9.3-24.9,18.6
	c-2.2,4.3-3.2,9.2-5.5,13.3c-3.7,6.5-10,10.8-13.4,17.3c-1.9,3.7-3.6,6.3-3.2,10.5c-4.5,1.4-9.3,2.9-13.9,4c-2.9,0.7-5.4,1.9-8,3.3
	c-0.8,0.4-7.3,2.1-7,1.6c2.4-3.7,5.9-5.5,6.9-9.9C344.9,175.2,343.8,170.3,345.4,165.8z"/>
<path class="st0" d="M398.5,133.3c2.2-3.7,5.3-7.9,9.6-7.5c-2.2,3.5-3.3,7.6-3.1,11.8c0.1,1.6,0.4,3.2,1.6,4.2
	c0.8,0.6,1.8,0.9,2.7,1.4c2.2,1.3,2.8,4.6,1.2,6.6c5.7-1.6,11.9-1.1,17.3,1.4c-11.4,7.2-20.9,17.4-27.2,29.4
	c-0.9,1.7-11.4,0.6-13.1,0.6c-6.3,0-11.9,0.1-18.1,1.2c-0.4-4.6,2.6-6.3,4.8-9.8C382.5,159.6,390.6,146.6,398.5,133.3z"/>
<path class="st0" d="M423.4,158.6c0.9-0.6,2.3-1.2,2.9-0.2c0.2,0.4,0.2,0.8,0.4,1.2c0.5,0.8,1.7,0.6,2.6,0.4
	c6.2-1.7,12.8-1.5,18.8,0.5c2.2,0.7,4.4,1.7,5.6,3.6c-9.6,1.6-17.6,10.1-18.8,19.7c0.3-2.1-26.2-1.9-28.2-2.1
	c-0.5-2.2,1.2-4.2,2.2-6.1C412.3,168.9,417.3,163.1,423.4,158.6z"/>
<path class="st0" d="M458.8,166c2.2-1.5,2.6,3.7,4.5,4.7c4.1,2.2,9,1.6,13.2,4c3.9,2.3,7,4.2,11.1,5.9c4.2,1.7,6.9,6.2,10.8,8.6
	c8.2,5.2-5.6,5.6-9.3,7c-2.9,1.1-5,2.2-7.7,3.8c-0.4,0.3-0.9,0.5-1.4,0.6c-0.5,0-0.9-0.1-1.4-0.3c-4.3-1.6-8.9-2.6-13.1-4.2
	c-3.6-1.4-6.7-4.3-10.1-6.2c-4.1-2.3-12.3-5.3-17-4.8C444.3,177.2,450.8,171.5,458.8,166z"/>
<path class="st0" d="M502.5,196.9c1.4,0.4,2.5,2.2,1.7,3.5c-0.3,0.5-0.9,0.9-0.7,1.5c0.1,0.3,0.4,0.4,0.7,0.6
	c1.7,0.7,3.9,0.9,5.1,2.3c0.9,1.1,1.1,2.6,1.8,3.8c1.2,1.9,3.5,2.6,5.5,3.6c3.3,1.7,6,4.7,7.4,8.2c-1.8-1.2-3.9-1.8-6-1.6
	c-3.3,0.3-6.5,2.4-9.8,1.9c-2.2-0.3-4.1-1.7-5.9-3.1c-3.7-2.9-6.2-6-9-9.6c-2.7-3.5-6.4-4.1-10.6-4.8
	C487.2,200.8,497.1,195.3,502.5,196.9z"/>
<path class="st0" d="M522.5,222.7c0.3,0,0.6,0.1,0.8,0.3c0.3,0.3,0.3,0.7,0.4,1.1c0.3,3.5,1.9,6.8,4.5,9.2c0.9,0.9,2,1.6,2.8,2.5
	c2.4,2.4,3.6,6,3.2,9.3c-2.1-1.5-4.8-2.3-7.5-2.1c-1.3-3.9-2.9-8-6.3-10.3c-2.4-1.6-3.8-2.3-5.4-4.5c-0.8-1.1-2.5-5-4.2-4.8
	C514.9,223,518.4,222.3,522.5,222.7z"/>
<path class="st0" d="M538.4,251.9c-0.1,0.2-0.3,0.3-0.5,0.4c-0.4,0.2-0.9,0.3-1.1,0.6c-0.1,0.2-0.2,0.4-0.2,0.6
	c-0.2,2.5,1.6,3.3,2.7,5c1.1,1.7,1.6,3.7,2,5.7c1.2,6,1.8,12.7-1.4,17.9c-0.2-3.5-5-5.1-5.6-8.5c-0.3-1.5,0.3-3.1,0.6-4.6
	c0.9-3.9,0.1-8-1.1-11.7c-1.1-3.5-2.9-8.8-5.7-11.3c1.6,1.4,4,1.7,6,2.3C534.7,248.6,539.2,250.6,538.4,251.9z"/>
<path class="st0" d="M541.3,283.8c1.5-0.2,1.9,2.1,1.7,3.2c-0.3,2.7-0.9,5.5-1.4,8.1c-1.3-1.5-1.8-3.5-2.2-5.4
	C539,288.1,538.6,284.2,541.3,283.8z"/>
<path class="st0" d="M327.7,266c3.3-1.9,7.9-3.2,10.8-0.6c2-3.2,6.8-4.3,9.9-2.1c1.7,1.2,2.7,3,4.2,4.5c2.3,2.3,5.3,3.7,8.1,5.4
	c2.8,1.7,5.4,4.2,5.9,7.4c-3.8,0-7.5,0-11.3,0c-2.3,0-4.8,0.1-6.6,1.4c-1.6,1.2-2.9,3.3-4.8,2.8c-0.7-0.2-1.2-0.7-1.7-1.1
	c-6.7-6-14.3-8.3-22.7-10.6C321.1,270.2,324.8,267.7,327.7,266z"/>
<path class="st0" d="M341.9,297.2c-2.6,0.5-5.2,1.7-6.7,4c-1.4,2.3-1.7,5.2-0.7,7.7c2.7-0.3,5.4,0.4,7.6,2c1.1,0.9,2.1,2,3.4,2.5
	c1.8,0.7,3.8,0.1,5.4-1s2.8-2.5,4.2-3.8c2.7-2.5,6-4.4,9.5-5.5c-2.1-2.3-1.4-6-0.2-8.8c1.3-2.9,5.4-10.1,0-9.9
	c-1.9,0.1-4.1,2.1-5.9,2.6c-3.7,1.2-8.5,0.2-12.4,0.6C339.6,288.4,340.6,291.5,341.9,297.2z"/>
<path class="st0" d="M369.3,304c0.9-0.4,1.7-0.3,3.2,0.5c4.6,2.5,8.4,7.3,10.7,11.9c2.1,4.3,1,8.6,3.1,13.1
	c2.9,6.4,2.8,13.8,0.3,20.3c-1.4,3.6-5.1,7.4-5.7,11.1c-2.7-3.3-4.5-7.1-5.5-11.2c-0.9-3.7-1.1-7.4-2.8-10.8c-1.2-2.4-3-4.5-3.8-7
	c-1.2-3.7-0.3-7.6,0-11.5c0.1-1.8-0.2-4.4-1.3-5.9c-0.3-0.4-3.8-3.3-4.3-2.9C365.5,309.6,366.4,305.4,369.3,304z"/>
<path class="st0" d="M396.7,352.4c1.6-11.5,10.8-21.9,8.4-33.2c-3.2-0.2-6.1-2.2-8.6-4.2c-8.5-6.9-15.9-15.9-26.3-19.2
	c-0.4,1.3-0.3,2.8,0.2,4.1c5.1,1.2,9.3,4.8,12.3,9.1c3,4.3,4.8,9.2,6.4,14.2c3.3,10,5.8,20.4,6.4,30.9c1.7-2.3,2.7-5.1,3-8"/>
<path class="st0" d="M373.6,294.3c0.3,0.1,0.5,0.1,0.8,0.2c5,0.9,9,3.5,13.1,6.5c6.1,4.5,12.2,9.1,18.3,13.6
	c-1.1-2.4-2.3-4.8-3.4-7.3c-2.8-5.8-5.7-11.9-10.9-15.7c-4.5-3.3-10.1-4.4-15.5-4.9c-5-0.5-5.2,2.2-3.2,6.6c0.1,0.3,0.3,0.5,0.5,0.7
	C373.2,294.2,373.4,294.2,373.6,294.3z"/>
<path class="st0" d="M309.4,284.7c0.8,0.4,1.5,0.8,1.9,1c4.7,3.2,3.3,9.3,7,12.5c1,0.9,2.4,1.2,3.8,1.3c4.2,0.3,8.5-1.4,11.3-4.5
	c2.8-3.1,4.1-7.6,3.4-11.7c-4.7-1.6-9.4-3.3-14.2-4.9c-2.1-0.7-4.2-1.4-6.4-1.7c-1.5-0.1-3.4-1-4.8-0.5c-4.4,1.5-8.4,2.4-11.9,5.6
	C300.5,281.1,306.2,283.3,309.4,284.7z"/>
<path class="st0" d="M297.4,313.6c8.7-4.1,24.6-2.8,30.6-10.8c-3.4-0.1-8,0.7-11.3,0c-2.5-0.5-4.3-3-7-2.3c-2.6,0.7-4.7,2.7-7,4.2
	c-6.6,4.3-14.9,4.2-22.7,3.9c2.6,0.1,6.8,3,9.2,4.1c1.2,0.5,3.5,2.1,4.8,2.1C296.2,315,295.4,314.6,297.4,313.6z"/>
<path class="st0" d="M291,289.3c3.7,0.3,6.9,2.2,10.3,3.5c1.5,0.6,8.2,3,9.6,1.9c1.1-0.9,0.2-2.7-0.8-3.7c-5.9-5.8-15.3-7.6-23-4.5
	c-2,0.8-4.2,2-5,4.1C284.7,290.3,288.1,289.1,291,289.3z"/>
<path class="st0" d="M292.8,294.1c0.4,0,0.7,0,1,0.1c4,0.4,5.5,3.4,8.1,5.9c-0.3-0.3-10.7,4.8-12.5,4.9c-4.7,0.1-7.9-2.6-11.6-5.1
	C281.5,295,287.1,293.9,292.8,294.1z"/>
<path class="st0" d="M251.5,276.1c-0.6-1.3,0.9-5,0.1-7c-0.7-1.9-2.4-4.3-3.7-5.8c0,0-3.3-3.2-3.1-2.5
	C246.2,266,249.2,271.2,251.5,276.1z"/>
<path class="st0" d="M228.2,252.2c-0.4,3.2,0.2,6.4,2.7,9.1c1.5,1.6,3.7,2.6,4.9,4.3c-4.4-5.1-8.4-16.7-5.9-23.3
	C229,244.9,228.5,249.4,228.2,252.2z"/>
<path class="st0" d="M241,273.2c0.4,0.9,1,1.7,1.4,2.6c0.6,1.2,0.8,2.6,1.6,3.7c0.9,1.2,2,2.4,3,3.6c0.2-2.8-0.4-5.2-1.6-7.8
	c-0.4-0.8-0.9-1.6-1.6-2.3c-0.8-0.7-2.3-1.8-3.3-2C240.4,271.8,240.7,272.6,241,273.2z"/>
<path class="st0" d="M431.3,512.8c0.2-1.4,2.4-4.5,2.9-6.6c0.5-1.9,0.4-4.2,0.2-6.2c0,0-0.3-9.2-0.5-8.5
	C432.2,496.6,432.2,507.5,431.3,512.8z"/>
<path class="st0" d="M425.8,479.9c-2.1,2.4-3.4,5.4-3,9.1c0.3,2.2,1.6,4.3,1.6,6.3c-0.7-6.7,0.4-16.3,6.2-20.3
	C428.3,476.6,427.6,477.8,425.8,479.9z"/>
<path class="st0" d="M424.8,499.8c-0.1,1-0.1,2-0.3,2.9c-0.2,1.3-0.8,2.6-0.8,3.9c0,1.5,0.3,3.1,0.4,4.6c1.8-2.2,2.7-4.5,3.1-7.3
	c0.1-0.9,0.2-1.9,0-2.8c-0.2-1-0.9-2.8-1.6-3.5C425.1,498.2,424.9,499,424.8,499.8z"/>
<path class="st0" d="M431.3,512.8c0.2-1.4,2.4-4.5,2.9-6.6c0.5-1.9,0.4-4.2,0.2-6.2c0,0-0.3-9.2-0.5-8.5
	C432.2,496.6,432.2,507.5,431.3,512.8"/>
<path class="st0" d="M425.8,479.9c-2.1,2.4-3.4,5.4-3,9.1c0.3,2.2,1.6,4.3,1.6,6.3c-0.7-6.7,0.4-16.3,6.2-20.3
	C428.3,476.6,427.6,477.8,425.8,479.9z"/>
<path class="st0" d="M424.1,511.2c1.8-2.2,2.7-4.5,3.1-7.3c0.1-0.9,0.2-1.9,0-2.8c-0.2-1-0.9-2.8-1.6-3.5c-0.5,0.6-0.7,1.4-0.8,2.1
	c-0.1,1-0.1,2-0.3,2.9c-0.2,1.3-0.8,2.6-0.8,3.9"/>
<path class="st0" d="M252.3,293.9c1.4,2.9,3.8,6,6.8,7.4c2.3,1,4.9,1,7.2,2c1.3,0.6,2,1.1,3.5,1.3c0.8,0.1,4.4,0.8,5,0.1
	c0.8-0.9-1-2.5-1.7-2.9c-2.7-1.6-6.5-1.6-9.3-2.6c-0.9-0.3-1.6-1-2.2-1.6c-2.3-2.3-4.3-4.8-6.1-7.4c-1.4-2-2.7-4.3-2.7-6.7
	c0-0.4-2.3-0.1-2.6,0.3c-0.4,0.6,0.2,2.5,0.2,3.2C250.7,289.5,251.3,291.8,252.3,293.9z"/>
<path class="st0" d="M262.5,306.2c-2.8,0.7-5.9,0.5-8.2-1.2s-4.7-4.1-6.5-6.4c-1.1-1.4-2-3-2.6-4.6c-0.6-1.8-0.2-3.6,0.1-5.5
	c0,0.3,1,1.8,1.2,2.2c0.4,0.7,0.7,1.5,1.1,2.2c1,1.8,2.1,3.5,3.4,5C254,301.6,258,304.5,262.5,306.2z"/>
<path class="st0" d="M266.7,315.4c0.8,0.6,1.6,1.3,2.4,1.9c1.2,1,2.5,2,2.9,3.5c0.2-1.2-0.3-2.4-0.8-3.5c-1.5-3.6-2.9-6.8-7.3-7.1
	C263.6,310.3,266.1,315,266.7,315.4z"/>
<path class="st0" d="M284.3,342.1c4.2,2.6,9.6,3.4,14.4,2.1c-3.1-0.9-6.2-0.1-9.1-1.8c-2.7-1.5-5.4-3.1-7.6-5.3
	c-2.8-2.8-4.8-6.5-6.6-10c0.3,3,1.2,5.6,2.6,8.3C279.5,338.1,281.7,340.5,284.3,342.1z"/>
<path class="st0" d="M276.7,316.7c2.2,6.2,7,11.4,13,14.2c1.2,0.5,2.4,1,3.6,1.4c6.8,2.2,14.3,3.2,20.1,7.4c2.3,1.7,4.2,3.8,5.7,6.3
	c-0.3-0.5-0.1-2.1-0.3-2.8c-0.2-1-0.6-2-1.1-2.8c-0.9-1.4-2.2-2.6-3.4-3.7c-2.8-2.4-6.1-4.2-9.5-5.3c-2.2-0.7-4.7-0.8-7-1.2
	c-2.7-0.6-5.5-1.2-8.1-2.3c-0.8-0.3-1.6-0.7-2.4-1.3c-4-2.9-6.9-6.2-8.7-10.9c-0.9-2.2-2-4.2-3.5-6.1c-0.7-0.9-1.7-1.7-2.8-2
	c1.1,1.2,2.2,2.9,2.9,4.4C275.8,313.6,276.2,315.1,276.7,316.7z"/>
<path class="st0" d="M99.3,222.3c2,3.1,4.1,6.2,5.7,9.5c2.1,4.5,3.4,9.3,5.3,13.9c1.9,4.6,4.4,9.1,8.4,12c-2.4-5.9-4.1-12-5.3-18.2
	c-0.7-4-1.2-8-3-11.6c-2.2-4.3-6.2-7.5-8.7-11.6c-2.5-4.2-3.4-9.2-3.5-14.1c0,0.7-8.3-3.9-8.8-4.3c-2.2-1.5-6.2-4.6-8.9-3.3
	c2.1,4.8,6.4,9.4,9.4,13.7C93.1,212.9,96.2,217.5,99.3,222.3z"/>
<path class="st0" d="M109.1,217.7c2.3,3.3,4.7,6.6,6.2,10.4c1.7,4.1,0.4,8.1,1.7,12.3c1.5,4.7,3.6,8.8,4.2,13.8
	c0.7,6.9,0.9,13.4-0.2,20.1c-0.9,5.8-0.7,11.6,0,17.4c0.4,2.9,0.8,5.8,1.4,8.7c0.1,0.5,1.9,6.3,1.8,6.4c1.8-3.4,4.9-6.1,8.5-7.4
	c-0.7-4.3-0.2-8.8,1.5-12.8c0.9-2.1,2.1-4,2.9-6.1c3.6-8.6,2.8-17.5,1.7-26.4c-0.6-4.6,0.9-8.5,1.9-13c0.1-0.5,0.2-1,0.1-1.5
	c-0.1-0.3-0.3-0.6-0.5-0.9c-2.4-3.6-5.5-6.8-8.2-10.2c-2.4-3-4.8-6.3-5-10.2c-6.3-1.2-10.6-6.8-15.6-10.8c-3.2-2.6-6.1-4.9-10.1-6.3
	c1.2,0.4,2.8,7.3,3.2,8.7C105.5,212.7,107.4,215.2,109.1,217.7z"/>
<path class="st0" d="M142.8,278.1c-1.5,5.7-4,11.2-4.9,17.1c-0.3,2.2-1.4,4.4,0.8,5.5c5.6,2.8,8.5-4.6,10-8.2
	c2.2-5.5,4-11.1,6.2-16.6c1-2.5,2-5.2,1.8-7.9c-0.2-1.9-1-3.7-1.3-5.7s0.1-4.2,1.8-5.2c-0.7,0.5-6.4-4.5-7.1-5.2
	c-2.3-2-4.8-4.3-6.5-6.7c1,1.3,0.2,5.9,0.3,7.6c0.2,3.1,0.8,6.2,0.8,9.3C144.6,267.6,144.2,272.9,142.8,278.1z"/>
<path class="st0" d="M156.1,288.8c3.1-6.1,4.5-12.9,4.1-19.7c2.6,0.2,4.9-1.5,6.7-3.4c2-2.1,3.9-4.3,6-6.2
	c0.4,8.1,0.2,16.7-1.9,24.6c-2.1,7.7-6.1,15-11.9,20.3c-0.5,0.5-1.1,1-1.8,1c-0.7,0-1.3-0.5-1.8-0.9c-2.5-2.1-4.9-3.1-3.9-6.6
	C152.3,294.7,154.6,291.8,156.1,288.8z"/>
<path class="st0" d="M162.8,313.5c0.2,0.3,0.5,0.6,0.9,0.6c0.8,0,2.9-2.4,3.6-2.9c1.6-1.2,3.1-2.5,4.5-3.9c2.9-2.8,5.3-6,7.5-9.4
	c4.3-6.8,7.3-14.3,9.8-21.9c1.1-3.4,2.1-6.8,2.6-10.3c0.4-3.3,0.3-6.7,0.3-10c0-10.6,0.9-21.2,2.5-31.7c-0.4,2.4-5.8,6.4-7.5,8.4
	c-2.5,3.2-4.7,6.6-6.8,10.1c-2.9,4.9-4.8,10.5-4.5,16.2c0.2,3.2,1.3,6.4,1.7,9.7c0.6,6.4-0.6,12.9-3.1,18.7
	c-2.1,4.7-4.1,9.5-6.8,13.9c-1.4,2.3-2.9,4.4-4.6,6.4C160.5,310.4,160.4,310.5,162.8,313.5z"/>
<path class="st0" d="M181.4,301.7c4.4-6.4,9.2-13.7,11.2-21.3c1-3.6,2.5-7,3-10.7c0.6-3.8,0.5-7.8,0.4-11.7
	c1.4,4.1,2.8,8.3,3.3,12.6c0.4,4-0.2,7.6-0.6,11.5c-0.4,4.1-1.5,7.8-3.4,11.4c-0.8,1.5-1.2,3.3-1.9,4.9c-0.8,1.7-1.8,3.3-2.9,4.9
	c-6.4,9.7-14.2,18.5-23.2,26c1.4-1.2,0.3-8.8,0.4-10.6c0-0.5,0.1-1,0.2-1.5c0.3-0.8,0.9-1.4,1.5-2
	C173.8,310.9,178,306.6,181.4,301.7z"/>
<path class="st0" d="M212.6,218c1.4-11.3,4.5-22.9,12.1-31.3c-0.7,0.7-5,1.3-6.3,2.1c-2.1,1.4-3.8,3.3-5.4,5.3
	c-2.4,2.9-4.7,5.9-7,8.8c-0.5,0.6-8,5.6-8,4.2c0,5.1-1,10.1-0.7,15.2c0.1,1.9,0.5,3.7,0.7,5.5c0.9,7.4-1.7,14.7-0.5,21.9
	c1.2,7.2,3.4,14.1,6.3,20.8c1.4-11.2,5.7-22,6.9-33.4C211.4,230.8,211.8,224.4,212.6,218z"/>
<path class="st0" d="M224.6,214.5c2.3-2,5.2-4.5,4.6-7.5c-0.2-0.8-0.6-1.7-0.2-2.5c0.2-0.4,0.6-0.7,0.9-1c7-5.6,11.1-14.7,10.6-23.7
	c0,0.6-8.5,6.5-9.4,7.5c-2.9,3-5.5,6.3-7.7,9.9c-2.6,4.3-4.9,8.9-6.3,13.7c-1.4,4.6-3,10.1-2.1,14.9
	C218.5,222.3,220.8,217.8,224.6,214.5z"/>
<path class="st0" d="M149.1,310.3c2.1,1,4.2,2,6.2,3c0-1.3-0.5-2.5-0.9-3.8c-0.4-1.2-0.8-2.3-1.7-3.2c-0.5-0.6-1.2-1-1.8-1.4
	c-3-1.9-6.2-2.4-9.6-1.7c0.7-0.1,2.7,3.3,3.2,3.9C145.7,308.6,147.4,309.4,149.1,310.3z"/>
<path class="st0" d="M161.6,315.5c0.3,0,0.6,0,0.9,0.2c0.5,0.4,0.3,1.1,0.3,1.8c0,1.4,1.3,2.4,1.8,3.6c0.5,1.2,0.4,2.6,0.3,3.9
	c-1.6-1-3-2.3-4.1-3.9c-1.1-1.6-2.3-3.5-3.1-5.3C158.6,315.2,160.5,315.5,161.6,315.5z"/>
<path class="st0" d="M128.6,306c2.8-1.6,6.3-1.7,9.2-0.3c1.3,0.6,2.5,1.5,3.5,2.5c0.4,0.4,2.5,2.5,2.5,3c0,1.5-3,2.4-4,3.2
	c-1.9,1.6-3.8,3.4-6.5,3.5c-0.1-2-1.1-3.8-2.5-5.3c-0.9-1-3.8-2.3-4.3-3.5C125.9,307.8,127.5,306.6,128.6,306z"/>
<path class="st0" d="M141.5,320.4c0.3-2.2,3.4-4.2,5.4-4.6c3.1-0.6,5.4,1,7.6,2.9c1.4,1.2,2.9,2.6,3.5,4.3c0.1,0.2,0.1,0.4,0,0.6
	c-0.3,0.7-2.5,1.3-3.2,1.6c-1.3,0.6-2.4,1.2-3.4,2.2c-1.4,1.4-2.5,3.3-4.4,4.1c-0.4-2.5-1.6-4.5-3.2-6.4
	C142.8,324.1,141.2,322.1,141.5,320.4z"/>
<path class="st0" d="M164.4,336.7c-0.2,1.1-0.6,2.2-1.1,3.3c-0.8,1.6-1.6,3.1-2.4,4.7c-0.1,0.2-0.2,0.4-0.4,0.5
	c-0.4,0.2-0.8-0.2-1.1-0.6c-1.4-1.9-2.5-4-4-5.8c-1.7-1.9-3.4-3-5.7-4.1c0.8-1.4,2.1-2.1,3.4-3c1.8-1.2,3.6-2.3,5.6-3
	c2.2-0.8,4.2,0.2,6.4-0.5C164.7,331.1,164.9,333.9,164.4,336.7z"/>
<path class="st0" d="M114.8,314.4c2.5-1.4,5-3.4,5.2-6.2c2,0.7,4.1,1.5,5.4,3.2c0.6,0.8,1,1.9,1.4,2.9c0.5,1.6,0.9,3.3,1.1,5
	c-1.5,0.6-3.1,1.2-4.4,2.2c-1.3,1-2.3,2.6-2.2,4.2c-0.1-2.3-4.5-4.5-6-5.6c-0.8-0.5-3-1.8-3.2-2.8
	C111.8,316,113.8,314.9,114.8,314.4z"/>
<path class="st0" d="M130.6,336.7c3-2.4,6.4-4.6,10.2-4.6c-0.4-2.7-1.4-5.6-3.5-7.3c-0.6-0.5-1.3-1-2.1-1.3c-2.3-1.1-5-1.4-7.3-0.5
	c-2.2,0.8-5,3.8-3.9,6.3C124.4,330.1,131.1,336.4,130.6,336.7z"/>
<path class="st0" d="M151.8,342.5c0.6-0.5,1.2-1.2,1.1-2c-0.1-0.5-0.4-0.9-0.8-1.3c-3.2-3.1-8.2-4.3-12.5-3
	c-2.6,0.8-4.7,2.9-6.1,5.2c-0.7,1.1,0.3,3.5,1,4.5c0.7,1,1.8,1.7,2.9,2.4c1,0.6,2.9,2.2,4.1,2.2c1.2,0,2.2-1.2,3.2-2
	C147.1,346.7,149.5,344.6,151.8,342.5z"/>
<path class="st0" d="M155.4,356.6c0.9-1.5,2.2-2.7,3-4.2c0.8-1.5,1.1-3.5,0-4.9c-0.9-1.2-2.6-1.5-4.1-1.1c-1.4,0.4-2.7,1.3-3.8,2.3
	c-2.6,2.2-5,4.8-5.7,8.1c0.7-0.4,1.5-0.2,2.2,0.2s1.2,1,1.7,1.5c1,1,2.2,1.9,3.5,2.5C155.3,362.6,154.3,358.5,155.4,356.6z"/>
<path class="st0" d="M105.2,328.2c-0.6,1.4-1.1,2.9-1.1,4.5c0,1.5,0.5,3.1,1.7,4.2c0.4,0.3,0.9,0.6,1.4,0.6s1.1-0.3,1.2-0.8
	c0.1-0.3,0-0.6,0-0.9c0.1-0.7,0.8-1.2,1.4-1.5c2.2-1.3,4.4-2.5,6.6-3.8c0.7-0.4,1.5-0.9,1.5-1.8c0-0.6-0.4-1.1-0.9-1.5
	c-1.1-1.1-2.2-2.2-3.2-3.3C109.4,319.4,107,324.1,105.2,328.2z"/>
<path class="st0" d="M114.5,347.8c0,0.5-0.1,1.1,0.1,1.5c0.2,0.4,0.5,0.7,0.8,0.9c1.8,1.2,4.2,0.1,6.1-0.9c1-0.6,2.1-1.1,3.1-1.7
	c2.1-1.1,4.4-2.6,4.5-5c0.1-2.1-2.5-6.5-4.3-7.6c-1.2-0.7-2.7-0.8-4.1-0.8c-3.1-0.1-10.7,2-9.1,6.7
	C112.5,343.5,114.5,345.1,114.5,347.8z"/>
<path class="st0" d="M141,358.5c0.1-0.2,0.2-0.5,0.2-0.8c0-0.3-0.2-0.6-0.4-0.8c-0.9-1.3-1.9-2.6-2.8-3.9c-0.5-0.7-1.1-1.5-1.8-2
	c-1.7-1.3-4-1.2-6.1-0.7c-2.7,0.6-5.3,1.8-7.1,3.8s-2.7,5.1-1.7,7.6c0.4,1.1,1.1,2,1.5,3.1c0.7,1.7,6.5,4.8,8,4.1
	c1.2-0.6,2.5-2.6,3.6-3.5C136.9,363.5,139.7,361.6,141,358.5z"/>
<path class="st0" d="M107.7,342.4c1.7,1.7,2.9,4,2.9,6.4c-1.4-0.8-3.2-0.4-4.6,0.3c-1.4,0.8-2.6,1.9-4,2.7c-1.4,0.8-3.1,1.4-4.6,0.9
	c-1.1-0.4,2.8-10.4,3.3-11.2c1-1.8,0.5-3.4,2.9-2.3C105.1,339.9,106.5,341.2,107.7,342.4z"/>
<path class="st0" d="M114.8,365.9c0.9-0.4,1.8-0.8,2.6-1.4c0.8-0.6,1.5-1.5,1.5-2.5c0-2.2-3-3.5-3.1-5.7c0-0.5,0.1-1.1,0-1.6
	c-0.3-1.1-1.6-1.4-2.8-1.5c-3.6-0.3-7.4-0.1-10.7,1.5c-3.3,1.6-5.9,4.9-5.9,8.6c0,0.2,0,0.4,0.2,0.6c0.1,0.1,0.3,0.1,0.5,0.2
	c3.5,0.6,5.9,3.6,8.7,5.5c0.6,0.4,1.5,1,2.2,1.2c1.4,0.3,1,0.2,2-0.9C111.4,368.3,112.8,366.9,114.8,365.9z"/>
<path class="st0" d="M151.1,365.5c0-0.3,0-0.5-0.1-0.8c-0.1-0.3-0.4-0.4-0.7-0.6c-3.6-1.8-8.2-0.5-11,2.2c-2.9,2.8-4.2,6.8-4.5,10.8
	c5.1,1.4,10,3.7,14.3,6.8c3.9,2.7,2.4-3.7,2.4-5.7C151.4,374,151.2,369.8,151.1,365.5z"/>
<path class="st0" d="M131,378.4c0.3-0.3,0.7-0.8,0.6-1.3c0-0.4-0.3-0.7-0.5-1c-2.8-3.5-7.2-5.6-11.6-5.9c-1.3-0.1-2.6,0-3.7,0.6
	c-1.8,0.8-3,2.5-3.8,4.2c-1.1,2.4-1.7,5.1-1.6,7.7c3.1-1.2,6.7,0.4,9.1,2.8c0.7,0.8,2.1,2.5,3.4,2.1c1.2-0.4,0.9-1.8,1.5-2.8
	C125.8,382.3,128.9,380.6,131,378.4z"/>
<path class="st0" d="M106.1,379.4c-2.1,1.9-4.5,3.6-7.2,4c-0.4,0.1-0.9,0.1-1.1-0.3c-0.1-0.2-0.1-0.4-0.1-0.6c0-2.9-1.1-5.7-1.9-8.5
	c-0.5-1.8-2.2-6.8,1.1-6.3C101.7,368.3,105.5,375.3,106.1,379.4z"/>
<path class="st0" d="M143.5,395.3c2-2.6,4.8-4.6,6.9-7.2c-3.4-1-6.2-3.3-9.3-4.9s-7-2.6-10.1-0.9c-0.2,1.7-1.5,3.1-2.6,4.5
	c-1.4,1.7-2.5,3.6-3.4,5.7c-0.8,1.9-1.1,4.4,0.5,5.6c0.9-0.9,2-1,3.2-0.8c3.2,0.6,6.5,2.3,8.6,4.8c0.7,0.8,1.2,2.4,2.3,2.7
	c2.1,0.6,1.7-2.6,1.6-3.6C141.2,398.9,142.1,397.1,143.5,395.3z"/>
<path class="st0" d="M92.7,386.1c0.9,3.3,2.3,6.4,3.4,9.6c1.2,3.7,2.1,7.6,2.9,11.5c-1.9-2.5-4.6-4.3-7.6-5.1
	c0.6-0.8,1.8-0.8,2.7-1.2c1.1-0.6,1.7-2,1.4-3.3c-0.3-1.2-1.3-2.3-2.4-2.8c-0.7-0.3-1.5-0.5-1.9-1.1c-0.3-0.4-0.4-0.9-0.6-1.3
	c-0.9-3.7-1.5-7.4-1.5-11.2c0.1-2.9,0.4-7.8,2.5-10c0.8,1.6,0,4.3,0,6C91.5,380.1,91.9,383.1,92.7,386.1z"/>
<path class="st0" d="M114.4,399c1.2-1.1,2.6-2,3.9-2.9c1.8-1.2,2.8-1.3,1.5-3.2c-1.7-2.5-4.2-4.7-6.7-6.2c-0.7-0.4-1.5-0.8-2.3-1
	c-0.8-0.2-1.7-0.1-2.6,0c-2.4,0.3-7.2,0.6-7.4,3.6c-0.2,3.1,1.8,7.4,2.8,10.2c0.7,2.3,1.5,6.5,3.1,8.3c2.2,2.3,2.9-1.2,3.5-2.7
	C111.2,402.7,112.6,400.6,114.4,399z"/>
<path class="st0" d="M136.3,409.5c0.5-0.3,1.1-0.7,1.1-1.3c0-0.4-0.2-0.7-0.5-1c-1.9-2.4-4-4.8-6.9-5.8c-3.4-1.2-7.5-0.3-10.6-2.1
	c-0.6,2.1-2.2,3.6-3.6,5.3c-1.5,1.8-2.7,3.8-3.5,6c-0.2,0.5-0.4,1.1-0.3,1.7c0.1,0.6,0.5,1.2,0.9,1.7c1.7,2.1,3.4,4.1,5.4,5.8
	c1.3,1,4.3,3.1,6.1,2.7c1.5-0.3,2-2.9,2.8-4.2C129.4,414.6,132.6,411.5,136.3,409.5z"/>
<path class="st0" d="M164.4,407.9c-3.9-1.7-6.8-5.5-7.3-9.7c-0.1-0.5-0.1-1.2-0.6-1.5c-0.2-0.1-0.5-0.2-0.7-0.2
	c-2.4-0.4-5-0.4-6.9,1c-1.7,1.2-2.6,3.3-3.1,5.4c-0.5,2.1-0.7,4.2-1.5,6.2c2.6,1.2,5.1,2.6,7.5,4.1c2.1,1.3,4.3,2.6,6.4,3.9
	c2.6,1.6,2.5-0.5,3.7-2.6C162.1,413.8,165.4,408.3,164.4,407.9z"/>
<path class="st0" d="M155.1,419c-2-3.1-6.3-3.4-9.5-5.2c-0.8-0.5-1.6-1.1-2.6-1.3c-0.7-0.2-1.5-0.2-2.3-0.1c-1.3,0-2.6,0.1-3.9,0.1
	c-0.3,0-0.7,0-0.9,0.2c-0.2,0.2-0.4,0.4-0.5,0.7c-1.7,3-3.3,6.2-4.8,9.4c-0.3,0.7-0.6,1.4-0.4,2.1c0.2,0.6,0.7,0.9,1.2,1.3
	c2,1.4,4.4,2.2,6.8,2.3c1.9,0.1,3.7-0.1,5.6-0.1c3.2,0.1,4.5,1.5,6.3-1.6C150.5,426.2,155,418.9,155.1,419z"/>
<path class="st0" d="M157,426c-0.6,0.4-1,1-1.5,1.5c-0.1,0.1-0.1,0.1-0.2,0.1c-0.1,0-0.1-0.1-0.1-0.1c-1.1-1.4-1.1-3.6,0-5
	c0.7-0.8,2.7-2,3.6-1.1c0.7,0.8,0,3.3,0.1,4.2C158.3,425.5,157.6,425.6,157,426z"/>
<path class="st0" d="M163.2,419.7c-0.3,0.8-0.5,1.6-0.4,2.3c0.1,0.8,0.5,1.6,1.3,1.9c0.6,0.2,1.2,0.1,1.9,0c2.1-0.4,4.2-0.8,6.2-1.4
	c1-0.3,2.1-0.9,2.5-1.9c0.4-1.1-0.3-2.2-1.1-3.1c-1.3-1.4-4.3-4-6.4-3.7C165,414.3,163.8,418,163.2,419.7z"/>
<path class="st0" d="M101.3,419c0.4,1.9,1.2,3.8,2,5.6c0.2,0.5,0.5,1.1,0.3,1.6c-0.2,0.7-1.1,1.1-1.8,1c-0.8-0.1-1.4-0.5-2.1-0.9
	c-3-2-6-3.9-9-5.9c1.5-1,2-3.1,1.7-4.9c-0.3-1.8-1.2-3.4-2-5.1c-0.8-1.6-1.5-3.4-1.4-5.2c0,0.6,3.6,2.9,4.1,3.4
	c1.5,1.1,3,2.1,4.6,3.1c1,0.6,2.8,1.2,3.3,2.3C101.7,415.3,101,417.6,101.3,419z"/>
<path class="st0" d="M107,423.8c1.8,3.2,5.4,5.7,9.1,5.4c0.4-2.1,0.6-4.2,0.6-6.3c0-0.3,0-0.7-0.2-1c-0.2-0.3-0.4-0.5-0.7-0.6
	c-2.5-1.7-5-3.4-7.5-5.2c-0.9-0.6-2.2-2.3-3.1-2.5C104.6,416.9,105.4,420.9,107,423.8z"/>
<path class="st0" d="M131.8,436.5c1.4-1.3,3.2-2.4,3.7-4.2c-5.3-1.2-9.4-5.5-14.4-7.4c-0.3-0.1-0.7-0.2-1-0.2
	c-0.9,0.2-1.1,1.3-1.1,2.2c0.1,2.9,0.6,7.1,2.9,9.1c2.3,2,5.7,2.5,7.2,5.5C130.2,440,130.3,437.9,131.8,436.5z"/>
<path class="st0" d="M121,439.2c-1.4-2-2.9-3.9-4.9-5.2s-4.5-2.1-6.8-1.5c-0.9,0.2-1.8,0.7-2.2,1.6c-0.2,0.5-0.2,1-0.2,1.5
	c-0.1,4,0.3,8,1,11.9c0.1,0.3,0.2,0.7,0.5,0.9c0.2,0.1,0.5,0.1,0.8,0.1c2.7-0.3,4.9-2.3,7.3-3.5c1-0.5,2-0.8,3-1.1
	c0.7-0.2,2.6-0.1,3.1-0.6C123.7,442.2,121.7,440.2,121,439.2z"/>
<path class="st0" d="M134.8,445.9c0.8,2.2,1.7,4.6,3.7,5.9c0.6,0.4,1.4,0.7,2.1,0.6c1-0.1,1.7-0.9,2.4-1.5c3.4-2.8,8.4-3,11.8-5.8
	c0.5-0.4,0.9-0.9,1-1.5c0-0.6-0.3-1.1-0.7-1.5c-4.4-5.2-12.3-7.1-18.6-4.5C131.8,439.6,133.5,442.3,134.8,445.9z"/>
<path class="st0" d="M158.1,438.5c1-1.6,3-2.4,4.8-2.2c0.3,0,0.6,0.1,0.8,0.4c0.3,0.4-0.1,0.9-0.4,1.3c-0.5,0.6-1.2,1.1-1.8,1.5
	c-0.7,0.5-1.6,0.8-2.5,0.8c-0.9-0.1-1.7-0.8-1.7-1.6c0.6-0.2,1.1-0.4,1.7-0.7"/>
<path class="st0" d="M149.1,432c2.6-0.6,5.1-1.7,7.7-1.9c1.5-0.2,3-0.1,4.4-0.6c1.4-0.5,2.7-1.7,2.6-3.2c2.7,1.8,5,4.2,6.7,6.9
	c-4.3-0.9-8.7,1-13,1.8c-3.6,0.7-7.3,0.6-10.9-0.1c-1.4-0.3-4.7-1.2-4.8-3C144.4,432.6,146.6,432.6,149.1,432z"/>
<path class="st0" d="M129.1,445.3c-0.2-0.2-0.3-0.4-0.6-0.4c-0.2,0-0.4,0-0.6,0.1c-3,1.2-6.1,2.5-8.7,4.6c-2.6,2.1-4.5,5.1-4.5,8.4
	c0,3.8,2.6,7.1,5.2,9.8c-0.5-0.6,5.3-5,5.9-5.4c2.4-1.5,5.1-2.5,7.9-2.9c1.8-0.3,2.1-0.2,1.8-2.2c-0.2-1.5-0.7-2.9-1.3-4.2
	C133.1,450.1,131.1,447.7,129.1,445.3z"/>
<path class="st0" d="M102.1,439.5c0.3-2.3,1.2-4.5,2-6.7c-2-0.6-4.1-1.2-6.1-1.8c-1-0.3-2-0.6-2.9-1.1c-1.3-0.8-2.3-2-3.1-3.3
	c-0.5-0.7-1.2-1.6-2-1.2c-0.4,0.2-0.6,0.6-0.7,1.1c-0.3,1.3-0.3,2.8,0.2,4.1c0.3,1,0.9,2,0.8,3c-0.2,1.9-2.3,2.9-3.6,4.2
	c-0.3,0.3-0.5,0.6-0.5,1c0,0.6,0.5,1,1,1.3c2.8,1.9,6.1,3.2,9.5,3.6c2.3,0.3,4.3,1.1,6.4,1.6C102.2,443.3,101.9,441.5,102.1,439.5z"
	/>
<path class="st0" d="M110.6,460.6c-0.5-1.5-1.1-3-1.9-4.4c-1.8-3-4.1-5.4-7.3-6.8c-2.6-1.2-4.8-3.6-7.7-4.1
	c-1.3-0.3-2.7-0.2-4.1-0.4c-1.9-0.2-3.7-1-5.3-2.1c-0.7-0.5-3.5-1.9-3.7-2.8c0.5,2.4,0.3,5,1.2,7.3c1.1,2.8,3,5.3,4.9,7.6
	c1.5,1.9,3.1,3.7,4.7,5.5c0.6,0.7,1.8,1.6,2.1,2.4c0.2,0.7-0.2,1.4-0.1,2.1c0.2,1.3,1.7,1.8,3,2c5.8,1,11.8,2.6,17.6,3
	c3.2,0.2,0.7-2.2-0.6-3.7C112.1,464.7,111.3,462.7,110.6,460.6z"/>
<path class="st0" d="M129.6,488.2c-1.6-2.3-2.8-4.9-4.5-7.1c-3.1-3.9-7.6-6.7-12.5-7.6c-5.4-1-11.1,0.2-16.4-1.2
	c-2.6-0.7-4.9-2-6.9-3.8c-0.1,4.6,3.3,8.6,7.2,11.2c3.8,2.6,8.3,4.2,11.9,7c2.2,1.7,4.1,3.7,6.4,5.4c1.9,1.4,4.3,2.2,6.6,2.4
	c2.5,0.3,4.9-0.2,7.3-0.4c0.4,0,5.7-0.8,5.6-1C132.6,491.5,130.9,490.2,129.6,488.2z"/>
<path class="st0" d="M144.1,479c0.3-2.2-1.7-3.8-3.2-5.4c-1.9-1.9-3.3-4.2-4.2-6.7c-0.3-1-0.6-2.1-1.4-2.8c-0.9-0.7-2.1-0.8-3.2-0.7
	c-4.6,0.7-7.9,5.5-7.5,10.2c0.3,4.1,3.7,9.7,7.9,10.7c2.2,0.5,3.5-1.1,5.1-2.4C137.8,481.6,144.3,477.6,144.1,479z"/>
<path class="st0" d="M143.3,466.5c1.4,2,1.8,4.6,1.9,7.1c0,0.3,0,0.5,0.2,0.7c0.5,0.7,1.5,0.1,2-0.5c4.5-4.7,10.5-7.8,17-8.8
	c-4.5-2.5-6.6-7.7-7.4-12.8c-0.1-0.3-0.1-0.7-0.4-0.9c-0.2-0.2-0.6-0.2-0.9-0.1c-4.5,0.5-8.4,3-11.8,5.9c-1.2,1-4.2,2.9-4.3,4.6
	C139.5,463.3,142.4,465.1,143.3,466.5z"/>
<path class="st0" d="M184.2,450.9c-2.5-0.4-4.3-2.5-5.4-4.7c-1.1-2.2-1.7-4.7-2.8-7c-0.4-0.8-1-1.7-1.9-1.9c-0.4-0.1-0.9,0-1.3,0.1
	c-3.8,0.8-6.9,1.2-9.6,4.5c-0.6,0.7-4.7,6.4-4.3,6.7c2.4,1.6,4.1,5.4,5.3,7.9c1.2,2.4,4.1,3.4,5.4,5.8c0.1,0.1,2.8-3.9,3-4.2
	c1-1.1,2.7-2.2,4-3c1.3-0.8,2.7-1.5,4-2.2C181.3,452.7,183.6,450.8,184.2,450.9z"/>
<path class="st0" d="M182.8,443.7c0.9,1.3,1.9,2.4,3,3.5c1.2,1.3,2.5,2.5,3.7,3.8c1.1-2.8,3.7-4.8,6.2-6.4c2.6-1.6,5.3-3.2,7.1-5.7
	c-0.9-1.4-1.8-2.9-3.2-3.9c-1.2-0.8-2.7-1.2-4.2-1.3c-4.3-0.3-8.4,1.2-12.6,1.8c-2.3,0.3-2.5,0.6-2.1,3
	C181,440.3,181.7,442.1,182.8,443.7z"/>
<path class="st0" d="M186,420.6c0.7-0.3,1.5-0.5,2.1-1.1c1.6-1.4,1.3-3.9,1-5.9c2.7,0.6,5.2,2.4,6.6,4.8c1.8,3.1,2.2,7.5,5.4,9.2
	c1.3,0.7,3.1,1.1,3.2,2.6c-2.4,0.9-5.2-1-7.8-0.5c-3.1,0.5-6.3,0.4-9.4,0.7c-3,0.3-5,1.7-7.8,2.7c-2.1,0.7-5.3,0.8-6.7-1.1
	c-1.2-1.7-0.9-4.5,0.3-6C175.6,422.4,182.1,421.9,186,420.6z"/>
<path class="st0" d="M212,437.4c1.1-0.8,2.2-1.7,3-2.8c0.8-1.1,1.3-2.5,1-3.8c-0.6,0.2-1.1,0.5-1.7,0.8c-2.9,1.3-6.6-0.1-9.5,1.3
	c-0.2,0.1-0.4,0.2-0.4,0.4c0,0.2,0.1,0.3,0.1,0.5c0.6,1.2,1.2,2.3,1.9,3.5c0.4,0.7,0.7,1.4,1.3,1.9
	C209.3,441.1,210.5,438.5,212,437.4z"/>
<path class="st0" d="M152,496.3c-1-1.5-2.7-2.5-3.9-3.8c-1.2-1.3-1.9-3-2.4-4.7c-0.4-1.3-0.9-2.9-2.2-3.1c-0.4-0.1-0.9,0-1.3,0.1
	c-1.6,0.4-3.2,1.1-4.6,2c-0.7,0.4-1.4,1-1.5,1.8c-0.2,1.3,1.3,2.1,2.4,2.9c1.2,0.8,2.1,2,3.1,3.1c2.5,3,5.3,5.8,8.3,8.3
	c1.9,1.6,2.6,1.1,3-1.3C153.2,499.8,153,497.9,152,496.3z"/>
<path class="st0" d="M157.5,496c4.7-3.4,11.7-3.4,15.4-7.9c0.4-0.4,0.7-0.9,0.7-1.5c0-0.8-0.8-1.4-1.4-1.9c-3.8-3.3-5-8.7-6.5-13.5
	c-0.1-0.4-0.3-0.8-0.6-1c-0.3-0.2-0.7-0.2-1.1-0.1c-6,0.6-11.6,3.8-15.4,8.5c-1.2,1.5-2,2.1-1.1,3.7c0.9,1.5,2.4,2.9,3.5,4.4
	C153.4,489.7,155.5,492.8,157.5,496z"/>
<path class="st0" d="M178.1,483.3c3.1-4.3,8.4-6.2,13.1-8.5c3.2-1.6,2.8-3.9,0.5-6.3c-2.2-2.3-3.3-4.9-5.3-7.3
	c-0.4-0.5-0.9-1-1.3-1.5c-0.8-1-0.6-1.8-0.6-3c0-0.2,0-0.5-0.2-0.6c-0.3-0.2-0.6,0.1-0.9,0.3c-2.4,2.5-5.1,3.3-7.8,5.4
	c-2.4,1.8-5.3,4.1-6.9,6.7c-1.6,2.6,2.8,4.6,4.4,6.5C175.3,477.4,177,480.3,178.1,483.3z"/>
<path class="st0" d="M189.7,454.1c-0.3,0.3-0.6,0.7-0.7,1.1c-0.1,0.5,0.1,1.1,0.4,1.6c0.8,1.6,1.6,3.2,2.3,4.8
	c1.1,2.3,2.3,4.6,4.3,6.2c0.8,0.6,1.7,1,2.7,1c1.7-0.2,2.7-1.8,3.8-3c2.9-3.3,7.3-5,11.7-5.8c0-1.4-0.9-2.5-1.7-3.6
	c-1.8-2.3-3.1-4.8-4.3-7.5c-1-2.1-2.1-4.6-4.8-4C198.4,445.7,193,450.6,189.7,454.1z"/>
<path class="st0" d="M214.2,450.5c1.2,2.4,2.5,5,4.9,6.2c0.4,0.2,0.9,0.4,1.4,0.3c0.5-0.1,0.9-0.4,1.2-0.8
	c4.7-4.1,9.8-8.1,15.7-10.1c-1.9-1.5-3.3-3.7-4-6c-0.6-2.2-0.6-4.7-2.1-6.5c-1.3-1.4-3.3-2-5.2-1.8c-1.9,0.2-3.7,1-5.3,2
	c-3,1.7-6.6,4.1-8,7.4C211.4,444.7,212.7,447.5,214.2,450.5z"/>
<path class="st0" d="M210.6,407.8c0.4-2.4,0.3-4.9-0.2-7.4c4.2,1,7.7,4,10.9,6.9c3.2,2.8,6.3,5.7,9,9c2.6,3.3,4.7,7.2,5.3,11.4
	c-8.4,0.3-16.8,0.6-25.2,1c-0.6,0-1.1,0-1.6-0.2c-0.4-0.2-0.6-0.4-0.9-0.7c-2.2-2.2-4.4-4.5-6.4-6.9c-2.2-2.6-4-4.7-5.3-7.9
	c-0.6-1.5-2.5-1.8-3.5-3c3.1-0.5,5.9,0.8,9-0.3C204.5,408.8,207.5,407.5,210.6,407.8z"/>
<path class="st0" d="M176.9,513.6c1.6-0.7,3.5-1.1,4.3-2.6c0.2-0.4,0.3-0.8,0.1-1.1c-0.2-0.4-0.7-0.5-1.1-0.7
	c-2.4-0.8-4-3.1-4.8-5.5c-0.9-2.4-1.2-4.9-2.1-7.3c-0.2-0.4-0.4-0.9-0.9-1.1c-0.3-0.1-0.6,0-0.9,0.1c-6.7,1.9-12.9,5.3-18,10
	c-0.3,0.3-0.7,0.6-0.7,1.1c0,0.3,0.2,0.6,0.4,0.9c1,1.2,2.4,2.2,3.7,3.1c3.6,2.5,7.5,6.3,11.6,8C171.6,519.7,174,514.8,176.9,513.6z
	"/>
<path class="st0" d="M181.5,503.5c1.8,3.3,5.2,5.7,8.8,6.4c0.4,0.1,0.8,0.1,1.1-0.1c0.4-0.2,0.5-0.6,0.7-1c1.3-2.8,3.7-4.9,6.1-6.8
	c2.8-2.3,5.7-4.6,8.5-6.9c-1.9-0.8-3.9-1.6-5.3-3.1c-0.9-1-1.6-2.3-2.3-3.5c-1.2-1.9-2.7-3.5-4.4-4.9c-1.1-0.9-2.4-1.7-3.8-1.8
	c-1.6-0.1-3.1,0.6-4.5,1.4c-1.9,1.1-3.6,2.5-5.1,3.9c-1.3,1.2-4.1,3.3-4.6,5.1c-0.5,1.7,1.2,3.3,2,4.8
	C179.9,499.3,180.4,501.5,181.5,503.5z"/>
<path class="st0" d="M202.6,486c2,2.9,5.7,4.2,7.4,7.2c3.9-5.9,10.1-10.3,17-11.9c-0.4-1.4-1.9-2.1-3-3c-2.3-1.8-3.1-4.8-4.3-7.5
	c-1.2-2.6-3.3-5.4-6.2-5.3c-2.9,0-5.2,2.7-7.5,4.2c-2.1,1.4-4.3,3.2-6.1,4.9c-1.8,1.8-2.9,3.6-1.6,6
	C199.5,482.6,201.3,484.1,202.6,486z"/>
<path class="st0" d="M240.7,473.9c1.7-0.6,3.7-1,5.2-2.1c0.6-0.5,1.5-1.2,1.5-2.1c0.1-1.5-1-1.3-1.9-2.3c-0.8-0.9-1.2-2.1-1.7-3.2
	c-1.4-3.5-2.4-6.9-3.6-10.4c-0.2-0.4-0.4-0.8-0.8-1c-0.4-0.2-0.9-0.1-1.4,0.1c-3.5,1-6.9,2-10.1,3.6c-3.2,1.7-6.1,4.1-7.7,7.2
	c0.7,1.4,1.1,3,1.6,4.5c1.4,4,4.4,7.5,8,9.6c2.3,1.3,2.8,1,4.6-0.6C236.3,475.6,238.5,474.7,240.7,473.9z"/>
<path class="st0" d="M255.5,468.9c-0.2,0.3-0.4,0.6-0.7,0.7c-0.5,0.2-1.1-0.1-1.5-0.4c-1.8-1.4-3.4-3.4-4.3-5.6
	c-0.8-1.9-1.9-3.3-3-5c-1.1-1.8-2-3.8-1.8-5.8c0.4-3.3,3.8-4.2,6.3-5.6c3.3-1.8,6.6-3.5,10-5c-0.3,0.2,3.8,8.8,4.3,9.6
	c0.9,1.5,1.8,3,3,4.4c0.8,1,2.9,2.3,3.1,3.5C264.6,460.8,259,463.1,255.5,468.9z"/>
<path class="st0" d="M249.8,440.7c3.1-1.7,6.1-3.5,9.2-5.2c-3.8-0.4-7.5-1.8-11.2-2.7s-7.7-1.3-11.3,0c-0.2,0.1-0.4,0.2-0.6,0.4
	c-0.1,0.2-0.1,0.5,0,0.7c0.8,3.6,2.5,7,5,9.8c0.6,0.7,1.4,1.7,2.2,1.9c1.5,0.5,1.1,0.1,1.9-1.1C246.3,442.8,247.9,441.7,249.8,440.7
	z"/>
<path class="st0" d="M275,453.6c1.4-3.2,4.9-4.9,8.2-5.9s6.9-1.6,9.7-3.7c-2.9-3.8-8.3-4.8-13.2-4.7c-4.7,0.1-9,0.2-13.6-0.3
	c-0.2,2.1,2.5,5.6,3.6,7.4C271.3,449,273.1,451.4,275,453.6z"/>
<path class="st0" d="M192.8,526c-0.7-0.8-1.4-1.5-2.1-2.4c-2-2.6-2.4-6.1-2.6-9.3c-1.5,0.6-3.1,1.1-4.6,1.7c-1.5,0.5-3,1.1-4.2,2.1
	c-0.5,0.4-4,3.2-3.9,3.9c0,0.1,0.2,0.2,0.3,0.3c5.5,2.9,10.2,7.4,16.2,9.2c1.9,0.6,3.8,1.3,5.4,2.3c-1.2-1.8-2.2-3.5-3-5.4
	C193.9,527.4,193.4,526.7,192.8,526z"/>
<path class="st0" d="M206.4,503.2c0.3-0.5,1.7,2.4,1.7,2.6c0.6,1.3,1.4,2.5,2.4,3.5c0.6,0.6,1.3,1.2,1.9,1.8c2.8,2.9,4.7,6.3,7.6,9
	c-1.4-1.3-7.7,1.5-8.9,2.5c-2.3,2.1-4.2,5.1-6.3,7.5c-0.3,0.3-0.6,0.7-1,0.8c-0.7,0.2-1.3-0.3-1.8-0.8c-2.5-2.2-4.6-4.9-6.3-7.7
	c-1.2-2-3.8-6-2.9-8.5c0.8-2.3,4.5-4,6.4-5.2C201.9,507.2,204.6,505.7,206.4,503.2z"/>
<path class="st0" d="M227.1,513c2.1-2.9,5.4-5.8,8.4-7.7c3.1-2.1,5.4-4.1,1.9-7.4c-0.4-0.4-0.9-0.7-1.3-1c-1.8-1.2-3.5-2.7-4.5-4.5
	c-0.3-0.5-2.3-5.7-2-5.8c-2.8,0.8-5.6,1.8-8.2,3.1c-3.5,1.7-7,3.9-8.8,7.3s-1.2,8.4,2.1,10.3c0.8,0.5,1.8,0.8,2.6,1.3
	c1.2,0.7,2,1.8,2.9,2.9c0.8,0.9,2.6,3.4,3.9,3.7C225.5,515.6,226.4,514.1,227.1,513z"/>
<path class="st0" d="M254,493.9c2.2-1,4.8-1.6,7.2-1.8c0.2,0,0.4,0,0.5-0.2c0.2-0.2,0.1-0.5,0.1-0.8c-0.7-2.3-2.9-3.3-4.3-5.1
	c-1.6-2-2.2-4.7-2.6-7.2c-0.2-1.1-0.2-4-1.1-4.7c-0.9-0.8-3.4,0.3-4.5,0.6c-3.4,0.9-6.8,2.1-9.8,4c-2.1,1.3-4.1,3.1-4.9,5.5
	c-0.8,2.7,0.2,5.6,1.5,8.1c1.1,1.9,3.3,2.6,4.7,4.4c1.2,1.4,2.4,4.1,4.2,3.5c1.4-0.5,2.1-2.5,3.5-3.2
	C250.3,496.1,252.1,494.8,254,493.9z"/>
<path class="st0" d="M266,466.3c2.2-1.7,4.7-3.3,7.5-3.5c-0.6,3.7,0.9,7.4,2.8,10.6s4.3,6.1,5.9,9.5c-5.3,0.2-10.5,3.1-13.3,7.7
	c-1.3-1.4-3.3-2-4.7-3.3c-1.9-1.8-2.2-4.6-3.2-7.1c-0.6-1.4-1.4-2.6-2.3-3.7c-1.3-1.5-1.8-1.7-0.3-3.4
	C260.5,470.5,263.3,468.3,266,466.3z"/>
<path class="st0" d="M284.8,476.7c-0.6-3.4-2.7-6.2-4.3-9.3c-1.6-3-2.6-6.8-0.9-9.8c1.1-2,3.2-3.2,5.3-4.2c3.1-1.6,6.3-3.1,9.5-4.4
	c0.6,4,2.3,7.8,4.7,11c1,1.3,2.1,2.5,2.9,3.9c0.9,1.5,2.1,2.5,3,4c0.1,0.1,0.2,0.3,0.1,0.4c0,0.1-0.1,0.2-0.3,0.3
	c-2.3,1.6-5.7,1.1-8.3,1.9c-2.1,0.7-4.2,1.6-6.2,2.6C289.7,473.5,284.7,476,284.8,476.7z"/>
<path class="st0" d="M309.9,462.7c4.1-5,9.6-8.9,15.7-11.1c-0.7,0.2-4.2-2.2-4.9-2.5c-1.8-0.9-3.5-1.7-5.4-2.5
	c-3.6-1.5-7.3-2.7-11.1-3.2c-2-0.2-6.4-1.2-6.2,1.9c0.1,2.4,2.8,5.2,4.1,7.2C304.4,456,306.9,459.5,309.9,462.7z"/>
<path class="st0" d="M233.2,535.6c-0.9-1.1-2.4-1.4-3.7-2.1c-2.5-1.3-3.9-3.9-5.3-6.3c-0.6-1-1.3-2.1-2.4-2.5c-1-0.3-2-0.1-3,0.2
	c-3.7,1.3-6.7,4.1-9.4,7.1c-1.3,1.4-2.6,3.4-1.5,5c0.6,0.8,1.6,1.2,2.6,1.5c6.3,1.7,12.8,2.2,19.3,1.7c1.2-0.1,3,0.3,3.8-0.7
	C234.3,538.5,233.8,536.4,233.2,535.6z"/>
<path class="st0" d="M247.9,516.7c-0.5-1.1-2.1-1.1-3-1.8c-1.4-1.1-1.2-3.4-2.3-4.8c-0.8-1.1-2.3-1.4-3.7-1.2
	c-1.3,0.2-2.5,0.9-3.7,1.6c-2,1.3-3.9,2.8-5.3,4.7c-1.4,1.9-2.3,4.3-2.1,6.6c0.3,2.9,2.1,5.2,4.1,7.1c0.8,0.8,2,2.4,3,1.7
	c0.6-0.5,1.1-3.1,1.5-3.8c1.2-2.4,2.9-4.5,4.9-6.2C241.7,520.1,247.6,516,247.9,516.7z"/>
<path class="st0" d="M252.3,514.1c0.2,0.3,0.4,0.7,0.7,0.9c0.7,0.3,1.5-0.3,2.1-0.8c2.2-1.6,5.1-1.7,7.8-1.3
	c2.7,0.4,5.4,1.1,8.1,0.8c-3.7-2.9-6.2-7.4-6.7-12.2c-0.1-1-0.1-2-0.4-2.9c-0.3-0.9-1-1.8-1.9-2.1c-0.6-0.2-1.3,0-1.9,0.1
	c-3,0.7-6,1.8-8.6,3.4c-2.1,1.3-5.7,3.9-4.6,6.7C247.9,509.5,250.9,511.6,252.3,514.1z"/>
<path class="st0" d="M275.5,511.2c2.8,2.5,5.8,4.7,8.5,7.4c2.5-3.2,5.8-5.7,9.4-7.4c0.4-0.2,0.9-0.4,1.2-0.8
	c0.2-0.3,0.3-0.7,0.3-1.1c0-3-3-5-5.3-7c-3.9-3.4-6.3-8.5-6.5-13.6c0-0.5-0.1-1-0.4-1.3c-0.4-0.3-0.9-0.1-1.4,0.1
	c-3.1,1.5-6.2,3.1-8.7,5.5c-2.2,2.1-5.1,6-3.9,9.2C270,505.5,272.9,508.8,275.5,511.2z"/>
<path class="st0" d="M306.2,474.6c0.3,5.5,2.1,10.9,5.1,15.4c0.6,0.9,1.2,1.7,1.5,2.7c0.3,1,0.2,2.2-0.6,2.9
	c-0.4,0.4-1.1,0.6-1.6,0.8c-3,1-6.2,2.1-8.8,3.9c-0.9,0.6-2.9,3.3-4,3.4c-0.2,0-0.4-0.1-0.6-0.2c-2.2-1.4-4.7-3.9-5.8-6.3
	c-1.4-3.3-1.9-6.6-4-9.7c-0.8-1.2-1.2-2.4-0.3-3.7c1.5-2,3.3-3.7,5.3-5.1c2-1.4,4.3-2.5,6.6-3.2
	C299.7,475.3,306.2,474.1,306.2,474.6z"/>
<path class="st0" d="M312.7,478.1c1,3.6,2.3,7.7,5.6,9.4c0.7,0.4,5.7-2.9,6.6-3.3c2.4-1.2,4.9-2.5,7.3-3.7c1.7-0.9,5.2-1.8,2.6-3.7
	c-0.8-0.5-1.3-0.3-2-1.2c-0.7-0.9-0.9-2.3-1.1-3.3c-0.6-3-2.1-5.3-3-8.2c-0.7-2.2-1-4.7-4-4.5c-2.8,0.2-5.9,1.3-8.4,2.7
	c-2.4,1.4-5.3,4-5.8,6.9C310.1,471.9,311.9,475.6,312.7,478.1z"/>
<path class="st0" d="M356,465.6c0.3-0.1,0.6-0.3,0.7-0.5c0.4-0.6-0.2-1.4-0.8-1.9c-6.9-5.5-15.9-8.9-24.6-7.5
	c0.9-0.1,3.9,7.3,4.2,8.2c0.6,1.5,1.1,3,1.5,4.6c0.3,1.1,0.4,3.5,1.2,4.4c1.6,1.7,6.2-1.7,8.1-2.6
	C349.5,468.8,352.7,467.2,356,465.6z"/>
<path class="st0" d="M347.4,483.5c1.5-3.5,2.9-7.4,2.2-11.1c-1.2,0-2.4,0.4-3.4,1.1c-2.4,1.5-4.2,4-4.4,6.9s1.3,5.8,3.9,6.9
	c0.2,0.1,0.4,0.2,0.6,0.2C346.6,486.1,346.8,484.8,347.4,483.5z"/>
<path class="st0" d="M341.4,490.8c-0.8-1.4-2.2-2.6-2.3-4.2c0-0.6,0-1.4-0.5-1.7c-0.2-0.1-0.5-0.1-0.8-0.1
	c-3.7,0.2-7.4,0.8-10.7,2.4c-2.7,1.4-7,4.8-6.7,8.3c1.1,0.1,2.4-0.7,3.6-0.9c2-0.3,4.1-0.3,6.1-0.3c1,0,2.1,0,3.1,0.2
	c1.3,0.3,2.5,1,3.8,1.5C341,497.4,343.6,494.4,341.4,490.8z"/>
<path class="st0" d="M310.7,502.5c1.3-1.1,2.8-1.9,4.3-2.7c-0.8,0.4-2.5,0.3-3.5,0.5c-1.3,0.3-2.5,0.8-3.6,1.4
	c-1.5,0.7-5.9,2.6-6.3,4.5C300.7,509.5,309.8,503.3,310.7,502.5z"/>
<path class="st0" d="M298,513.5c-0.8,0.7-2.2,3.2-2.6,3.8c-1.1,1.8-1.9,3.9-2.8,5.9c-0.1,0.2-0.2,0.4-0.4,0.4c-0.1,0-0.3,0-0.4-0.1
	c-1-0.4-2.8-1.3-3.3-2.4c-0.6-1.4,0.7-2.1,1.8-2.9c2.2-1.7,5.2-4.5,7.9-4.9C298.2,513.4,298.1,513.4,298,513.5z"/>
<path class="st0" d="M280.1,521.5c-6.1-3.7-13.6-4.5-20.7-3.9c-2.1,0.2-4.3,0.5-6.3,1.3c-5.4,2-9.3,6.7-12.2,11.7
	c-1,1.7-2,3.7-1.7,5.7c2-1.2,4.9-0.9,7.2-1.6c2.6-0.8,5.1-2,7.6-3.1c4.2-1.9,8.6-4.1,13.3-4.3c4.1-0.1,9.1,1,13,2.3
	c1.6,0.6,3.2,1.4,4.9,1.7c1.6,0.3,5.3-0.1,4.8-2.5c-0.3-1.6-3-2.4-4.2-3.2C283.9,524.2,282.1,522.7,280.1,521.5z"/>
<path class="st0" d="M289,544c-11.6,0.1-21.4,9.2-32.9,11.2c-4.5,0.8-9.1,0.4-13.7,0.7c-7.8,0.5-15.5,2.7-22.4,6.6
	c0.9-3.2,2.7-6.2,5.1-8.5c2.3-2.3,5.2-3.9,7.6-6.1c2.3-2.3,4.2-5.5,3.4-8.7c2.2,1.3,5,1,7.4,0.1c7.1-2.7,14.9-5.2,22.4-5
	c6.2,0.2,12.4,0.3,18.6,0.5c3.2,0.1,4.7-0.2,7.5-1.5c-0.1,0.1-1.3,5.9-1.7,6.7C290.2,540.3,287.5,544.1,289,544z"/>
<path class="st0" d="M215.1,587.1c6.8-2.5,14.4-0.2,21.5-1.4c6.5-1.1,12.1-5,17.7-8.7c8.1-5.4,16.5-10.3,24.9-15.2
	c2.8-1.6,5.6-3.2,8.7-4c2.3-0.5,6.3,0.7,8.1-1.2c2.9-3.3-1.9-8.1-5.2-8c-1.7,0.1-3.3,0.8-4.9,1.5c-4.9,2.2-9.8,4.1-14.7,6.2
	c-14,6.1-31,1.6-45,7.8c-2.4,1-4.8,2.6-6.2,4.8c-1.4,2.1-0.9,4.3-2.3,6.3c-3.5,5-6.9,9.8-11,14.3
	C209.8,589.5,212.3,588.2,215.1,587.1z"/>
<path class="st0" d="M328.1,531.5c3.9,2.2,3,5.8,3.4,9.5c0.3,2.2,1.6,4.4,3.7,4.9c-2.4,2.7-4.4,5.8-5.8,9.1
	c-1.2,2.9-2.3,6.2-5.1,7.5c-1.6,0.8-3.5,0.7-5.3,0.6c-2.2-0.1-4.5-0.2-6.7-0.3c-3.4-0.2-7.2-0.6-9.1-3.4c-0.7-1-1.1-2.3-1.6-3.5
	c-1.3-2.9-3.5-5.2-5.4-7.7c-1.8-2.5-3.3-5.7-2.5-8.8c0.5-1.9,1.1-4.9,2.5-6c1.9-1.4,6.7-1.8,9-2.3c5.5-1.1,10.7-1.2,16.2-1.1
	c2.1,0,4.3,0.1,6.2,1.1C327.9,531.4,328,531.5,328.1,531.5z"/>
<path class="st0" d="M331.9,559.2c0.4,1.9,4.9,2.3,6.8,2.2c6.3-0.2,12.5-0.4,18.7-1c3.7-0.3,7.3-0.8,10.9-1.6
	c4.5-1.1,8.8-2.8,13-4.6c3.7-1.5,7.3-3,11-4.5c0.4-0.2,0.9-0.4,1.1-0.7c0.2-0.3,0.3-0.7,0.3-1.1c0.1-1.3,0.3-2.6,0.4-3.9
	c0.1-0.7,0.1-1.4-0.1-2c-0.5-1.3-2.1-1.7-3.4-1.4s-2.3,1.3-3.3,2.3c-2.7,2.7-5.5,5.4-8.7,7.4s-7.2,3.1-11,2.2
	c-2.5-0.6-4.8-2-7.3-2.3c-2.6-0.3-5.1,0.7-7.5,1.6c-2.6,1-5.1,2-7.7,3c-3.8,1.5-6.2,0.2-9.8-1.1c-0.5,1.1-1.2,2-2.1,2.8
	C332.2,557.7,331.8,558.6,331.9,559.2z"/>
<path class="st0" d="M375.6,518.7c-4.5-3.8-10.5-5.8-16.4-5.5c-5.9,0.3-11.7,2.8-15.9,6.9c-2.4,2.3-4.2,5.2-5.6,8.2
	c-1,2.1-1.7,4.4-1.8,6.8c-0.3,6.3,4.2,13.3,9.8,16.2c0.6,0.3,9.9-6.1,11.1-6.8c0.2-0.1,0.3-0.2,0.4-0.3c0.2-0.4-0.2-0.9-0.5-1.2
	c-2.1-2.1-1.4-5.2-0.7-7.7C358.6,526.2,367.4,521.8,375.6,518.7z"/>
<path class="st0" d="M353.6,507.5c-7.6-3.6-15.6-7.2-23.9-6.8c-7.2,0.4-14.1,3.8-19.4,8.7c-4.9,4.5-10.2,11.5-11.8,18.1
	c1.8,0.6,5.5-0.4,7.5-0.6c3.6-0.3,7.2-0.7,10.8-0.6c5.9,0.3,13.9,4.7,17.5-2.1c2-3.7,4-7,7.1-9.8
	C344.9,511.2,349.1,508.8,353.6,507.5z"/>
<path class="st0" d="M360.3,538.3c-1.1,1.6-1.3,3.5,0.3,5.6c1.3,1.7,3.4,2.5,5.4,3c3.9,0.9,8,0.9,11.8-0.2c1.4-0.4,2.8-0.9,4-1.9
	c1.1-0.9,2-2.3,2-3.8c0-2.6-2.4-4.5-4.8-5.6c-4.6-2-9.6-2.1-14.3-0.3C362.9,535.8,361.3,536.9,360.3,538.3z"/>
<path class="st0" d="M379.4,531c3.7,1.7,7.2,3.6,10.7,5.6c-2.5-4.3-6.1-8.2-10.7-10.1c-3.8-1.5-13.1-2.1-13.8,3.4
	c0-0.1,4.9-0.3,5.4-0.3C374.2,529.6,376.5,529.6,379.4,531z"/>
<path class="st0" d="M381.8,561.7c-9,3.7-17.9,7.8-26,13.1c-3.5,2.3-7,4.9-8.9,8.7c-0.8,1.6-1.3,3.3-2.2,4.8c-1,1.5-2.7,2.7-4.4,2.3
	c-0.2-5.9,3-11.6,7.4-15.6c4.4-4,9.9-6.5,15.4-8.6c5.5-2.1,11.2-3.8,16.6-6.3c2.2-1.1,4.4-2.3,6.4-3.7c2.3-1.5,3.1-2.7,5.4-0.6
	C389.3,558.8,385.2,560.3,381.8,561.7z"/>
<path class="st0" d="M378.9,570.9c5.8-1.6,12.2-2.2,16.7-6.1c0.7-0.6,1.3-1.7,0.6-2.2c-0.2-0.2-0.5-0.2-0.7-0.3
	c-0.6-0.1-1.2-0.3-1.8-0.4c-0.5-0.1-1.1-0.3-1.7-0.1c-0.5,0.2-0.9,0.5-1.3,0.9c-5.8,5.3-14.7,5.5-21.4,9.5c-3,1.8-6.3,4.7-7.6,8.1
	C367.5,576.7,372.2,572.8,378.9,570.9z"/>
<path class="st0" d="M406.2,556.4c2.6-0.5,5.4-0.7,8-1.1c5.5-0.9,12.5-3.4,15.5-8.5c-0.7,4.2-4,7.6-7.9,9.4s-8.2,2.2-12.4,2.5
	c-4.1,0.3-8.1,1.1-12.1,1.5C399.9,558,403,557,406.2,556.4z"/>
<path class="st0" d="M434.3,534.8c0.4,0.2,0.5,0.8,0.4,1.3c-0.1,1.3-0.3,2.5-0.6,3.8c-0.4,1.2-1.1,2.9-2.4,3.3
	c-0.2-0.9,0.6-2.2,0.9-3C433.5,538.3,434.2,536.7,434.3,534.8z"/>
<path class="st0" d="M415,544.1c5.4-3.3,9.8-8.3,11.6-14.4c1-0.5,2.3,0.3,2.7,1.4c0.4,1.1,0.3,2.2,0,3.4c-0.8,3.7-2.4,7.3-5,10.1
	c-1.5,1.7-3.4,3-5.2,4.3c-1.6,1.2-3.2,2.3-5,3.1c-3.9,1.7-8.3,1.6-12.5,1.4c-1.1,0-2.2-0.1-3.2-0.6c-0.6-0.3-1.3-1-1.3-1.7
	c-0.1-1.1,0.3-0.9,1.2-1.1c1.9-0.4,3.9-0.8,5.8-1.3C407.9,547.7,411.6,546.2,415,544.1z"/>
<path class="st0" d="M354.4,475.7c-0.5,0.3-1,0.7-1.3,1.2c-0.4,0.8-0.2,1.7-0.1,2.5c0.3,2.6-0.1,5.3-1.3,7.6c-1,2.1-2.6,3.9-3.5,6
	c-0.9,2.2-0.7,5,1.2,6.3c0.9,0.6,2,0.8,3,1.1c7.3,2.1,12.9,9.6,20.4,9.1c0.8-0.1,1.5-0.2,2.2,0.1c0.6,0.3,1.1,0.9,1.4,1.5
	c2.6,4.1,5.6,7.8,9.1,11.2c2.1,2.1,4.4,4.1,6.2,6.5c3.2,4.4,4.5,9.9,7,14.8c0.3,0.6,0.7,1.2,1.2,1.6c1.2,0.9,3,0.5,4.3-0.3
	c1.3-0.8,2.4-1.9,3.8-2.5c2.7-1.1,6.7-0.4,8-3c0.6-1.3,0.3-2.8,0.5-4.2c0.7-5.9,9.6-8.6,9.3-14.6c-0.1-2.5-2-4.6-4.1-6.1
	c-2.1-1.5-4.4-2.6-6.1-4.5c-2.4-2.6-3.3-6.3-5.3-9.2c-2.6-3.8-6.8-6.2-10.3-9.1s-6.6-7.4-5.6-11.9c0.2-1.1-22.6-11.8-24.9-12.9
	c-1.9-1-4.3-2.8-6.3-3.3c-2.6-0.6-1.8,0.4-2.5,2.9C359.8,470.2,357.5,473.5,354.4,475.7z"/>
<path class="st0" d="M296.8,361.3c4.6-2,5.6-4.1,6.3-8.7c1.5,1.2,3.4,1.9,4.7,3.3c2,2,3.4,4.6,5.2,6.8c6,7.2,13.7,12.5,18.9,20.5
	c6.8,10.4,11.8,23,14.2,35.1c1.3,6.6,2.3,13.3,3.7,19.9c0.7,3.4,1.5,6.8,2.5,10.1c0.6,2.1,2.9,6.1,2.2,8.1
	c-4.5-2.1-9.3-3.2-13.8-5.3c-2.2-1-3.9-2.6-6.1-3.4c-0.6-0.2-5.9-1-5.8-1.8c1.2-22.9-8.1-44-22.7-61.3c-1.7-2.1-4.2-3.6-6.3-5.3
	c-1.2-1-2.5-2.5-3.9-3.2c-1.3-0.7-2-0.4-3.5-0.6c1.1-4.5-1.7-11.1,3.7-13.8C296.3,361.6,296.6,361.4,296.8,361.3z"/>
<path class="st0" d="M288.6,413.4c-0.1-0.1-0.1-0.3-0.1-0.4c0-0.3,0.2-0.7,0.3-1c1.5-2.8,3.5-5.1,5.1-7.8c0.6-1.1,1.2-2.3,1-3.5
	c-0.3-1.7-2.1-2.7-2.9-4.2c-1.2-1.9-0.7-4.4-0.4-6.7c0.4-3.9-0.1-7.8-1.5-11.4c6.9,3.1,11.3,9.8,15.4,16.1c2.3,3.7,4.7,7.3,6.6,11.2
	c1.5,3,2.7,6.1,3.8,9.3c3.2,9.5,6.1,20.4,5.8,30.4c-4.2-3-7.5-4.4-12.8-5c-3.2-0.4-6.5-0.7-9.6-2c-7.9-3.2-6.3-12.9-7.9-19.8
	c-0.3-1.5-0.7-3.1-1.8-4.2C289.2,414.2,288.8,413.8,288.6,413.4z"/>
<path class="st0" d="M277.8,409.4c-0.9-1.1-2.3-2.3-3.6-1.8c-0.4,0.2-0.8,0.5-1.2,0.8c-2.5,1.9-6.2,1-9.2-0.1c-3-1-6.6-2-9.2-0.1
	c3,0.5,5,3.5,6.2,6.4c1.2,2.8,2.1,5.7,2.6,8.7c0.4,2.3,0.7,4.7,1.9,6.6c2.7,4.5,8.9,3.8,13.5,3.7c2.1-0.1,7.1,1.5,8.7,0.3
	c2-1.5,0-5.2-0.5-7C285.1,420.6,282,414.6,277.8,409.4z"/>
<path class="st0" d="M253.2,412.1c-0.1-0.6-0.3-1.1-0.7-1.5c-0.6-0.6-1.4-0.6-2.2-0.7c-4.5-0.4-8.5-2.9-12.7-4.6
	c-4.2-1.7-9.3-2.5-13,0c4.1,1.5,6.8,5.3,9.3,8.8c2.8,3.9,5.6,7.9,8.3,11.8c0.4,0.5,0.7,1,1.3,1.4c0.5,0.3,1.2,0.4,1.8,0.5
	c5.6,0.9,10.6,1.6,16,3.3c0.4,0.1,1,0.2,1.1-0.3c0-0.2-0.1-0.4-0.2-0.6c-2.1-3.3-5.1-6.6-6.5-10.2
	C254.8,417.5,253.9,414.8,253.2,412.1z"/>
</svg>
